<?xml version="1.0" encoding="utf-8" standalone="no"?>
<!DOCTYPE svg PUBLIC "-//W3C//DTD SVG 1.1//EN"
  "http://www.w3.org/Graphics/SVG/1.1/DTD/svg11.dtd">
<svg height="519.660937pt" version="1.1" viewBox="0 0 503.64 519.660937" width="503.64pt" xmlns="http://www.w3.org/2000/svg" xmlns:xlink="http://www.w3.org/1999/xlink">
 <metadata>
  <rdf:RDF xmlns:cc="http://creativecommons.org/ns#" xmlns:dc="http://purl.org/dc/elements/1.1/" xmlns:rdf="http://www.w3.org/1999/02/22-rdf-syntax-ns#">
   <cc:Work>
    <dc:type rdf:resource="http://purl.org/dc/dcmitype/StillImage"/>
    <dc:date>2021-08-07T12:18:41.237335</dc:date>
    <dc:format>image/svg+xml</dc:format>
    <dc:creator>
     <cc:Agent>
      <dc:title>Matplotlib v3.4.2, https://matplotlib.org/</dc:title>
     </cc:Agent>
    </dc:creator>
   </cc:Work>
  </rdf:RDF>
 </metadata>
 <defs>
  <style type="text/css">*{stroke-linecap:butt;stroke-linejoin:round;}</style>
 </defs>
 <g id="figure_1">
  <g id="patch_1">
   <path d="M 0 519.660937 
L 503.64 519.660937 
L 503.64 0 
L 0 0 
z
" style="fill:#ffffff;"/>
  </g>
  <g id="axes_1">
   <g id="matplotlib.axis_1"/>
   <g id="matplotlib.axis_2"/>
   <g id="patch_2">
    <path d="M 447.516 267.840937 
C 447.516 257.43975 446.68677 247.055098 445.036193 236.785712 
C 443.385617 226.516326 440.918942 216.394856 437.65962 206.517532 
L 251.82 267.840937 
L 447.516 267.840937 
z
" style="fill:#4c72b0;stroke:#ffffff;stroke-linejoin:miter;"/>
   </g>
   <g id="patch_3">
    <path d="M 437.65962 206.517532 
C 425.426589 169.445524 402.376031 136.868472 371.487124 112.99681 
C 340.598217 89.125148 303.261623 75.033612 264.302927 72.54347 
C 225.344231 70.053327 186.517407 79.276687 152.840645 99.021472 
C 119.163884 118.766258 92.153359 148.143531 75.300059 183.356413 
L 251.82 267.840937 
L 437.65962 206.517532 
z
" style="fill:#dd8452;stroke:#ffffff;stroke-linejoin:miter;"/>
   </g>
   <g id="patch_4">
    <path d="M 75.300059 183.356413 
C 55.232252 225.285608 50.745785 273.023489 62.650081 317.957463 
C 74.554376 362.891436 102.087725 402.146352 140.282717 428.640063 
C 178.477709 455.133775 224.890398 467.171054 271.147271 462.580202 
C 317.404143 457.98935 360.545404 437.064119 392.787754 403.579718 
L 251.82 267.840937 
L 75.300059 183.356413 
z
" style="fill:#55a868;stroke:#ffffff;stroke-linejoin:miter;"/>
   </g>
   <g id="patch_5">
    <path d="M 392.787754 403.579718 
C 406.719896 389.110878 418.341746 372.582927 427.24433 354.577486 
C 436.146914 336.572045 442.224564 317.302827 445.263405 297.44792 
L 251.82 267.840937 
L 392.787754 403.579718 
z
" style="fill:#c44e52;stroke:#ffffff;stroke-linejoin:miter;"/>
   </g>
   <g id="patch_6">
    <path d="M 445.263405 297.44792 
C 445.681477 294.716361 446.041644 291.976253 446.343665 289.22944 
C 446.645686 286.482627 446.889493 283.729725 447.074921 280.972586 
L 251.82 267.840937 
L 445.263405 297.44792 
z
" style="fill:#8172b3;stroke:#ffffff;stroke-linejoin:miter;"/>
   </g>
   <g id="patch_7">
    <path d="M 447.074921 280.972586 
C 447.135818 280.067114 447.190415 279.161229 447.238709 278.254997 
C 447.287003 277.348765 447.328992 276.442209 447.364675 275.535393 
L 251.82 267.840937 
L 447.074921 280.972586 
z
" style="fill:#937860;stroke:#ffffff;stroke-linejoin:miter;"/>
   </g>
   <g id="patch_8">
    <path d="M 447.364675 275.535393 
C 447.373481 275.311596 447.381903 275.087784 447.38994 274.863959 
C 447.397978 274.640133 447.405632 274.416294 447.412901 274.192442 
L 251.82 267.840937 
L 447.364675 275.535393 
z
" style="fill:#da8bc3;stroke:#ffffff;stroke-linejoin:miter;"/>
   </g>
   <g id="patch_9">
    <path d="M 447.412901 274.192442 
C 447.420453 273.959869 447.427591 273.727282 447.434313 273.494683 
C 447.441036 273.262084 447.447344 273.029474 447.453237 272.796852 
L 251.82 267.840937 
L 447.412901 274.192442 
z
" style="fill:#8c8c8c;stroke:#ffffff;stroke-linejoin:miter;"/>
   </g>
   <g id="patch_10">
    <path d="M 447.453237 272.796852 
C 447.455226 272.718343 447.457167 272.639832 447.459062 272.56132 
C 447.460956 272.482808 447.462803 272.404295 447.464603 272.32578 
L 251.82 267.840937 
L 447.453237 272.796852 
z
" style="fill:#ccb974;stroke:#ffffff;stroke-linejoin:miter;"/>
   </g>
   <g id="patch_11">
    <path d="M 447.464603 272.32578 
C 447.467269 272.209463 447.469832 272.093143 447.472291 271.976821 
C 447.47475 271.860499 447.477105 271.744175 447.479356 271.627849 
L 251.82 267.840937 
L 447.464603 272.32578 
z
" style="fill:#64b5cd;stroke:#ffffff;stroke-linejoin:miter;"/>
   </g>
   <g id="patch_12">
    <path d="M 447.479356 271.627849 
C 447.479975 271.595859 447.480587 271.563869 447.48119 271.531879 
C 447.481794 271.499889 447.482389 271.467899 447.482977 271.435909 
L 251.82 267.840937 
L 447.479356 271.627849 
z
" style="fill:#4c72b0;stroke:#ffffff;stroke-linejoin:miter;"/>
   </g>
   <g id="patch_13">
    <path d="M 447.482977 271.435909 
C 447.484901 271.331214 447.48674 271.226517 447.488496 271.121818 
C 447.490251 271.01712 447.491923 270.91242 447.49351 270.807719 
L 251.82 267.840937 
L 447.482977 271.435909 
z
" style="fill:#dd8452;stroke:#ffffff;stroke-linejoin:miter;"/>
   </g>
   <g id="patch_14">
    <path d="M 447.49351 270.807719 
C 447.494084 270.76991 447.494646 270.732101 447.495197 270.694292 
C 447.495748 270.656483 447.496289 270.618674 447.496818 270.580864 
L 251.82 267.840937 
L 447.49351 270.807719 
z
" style="fill:#55a868;stroke:#ffffff;stroke-linejoin:miter;"/>
   </g>
   <g id="patch_15">
    <path d="M 447.496818 270.580864 
C 447.499262 270.406359 447.501472 270.231851 447.503448 270.057341 
C 447.505425 269.88283 447.507168 269.708317 447.508678 269.533801 
L 251.82 267.840937 
L 447.496818 270.580864 
z
" style="fill:#c44e52;stroke:#ffffff;stroke-linejoin:miter;"/>
   </g>
   <g id="patch_16">
    <path d="M 447.508678 269.533801 
C 447.509106 269.484355 447.509515 269.434909 447.509905 269.385463 
C 447.510295 269.336016 447.510667 269.28657 447.511019 269.237123 
L 251.82 267.840937 
L 447.508678 269.533801 
z
" style="fill:#8172b3;stroke:#ffffff;stroke-linejoin:miter;"/>
   </g>
   <g id="patch_17">
    <path d="M 447.511019 269.237123 
C 447.51268 269.004433 447.513925 268.77174 447.514755 268.539046 
C 447.515585 268.306351 447.516 268.073656 447.516 267.84096 
L 251.82 267.840937 
L 447.511019 269.237123 
z
" style="fill:#937860;stroke:#ffffff;stroke-linejoin:miter;"/>
   </g>
   <g id="text_1">
    <!-- 1 -->
    <g style="fill:#262626;" transform="translate(464.357813 236.523861)scale(0.11 -0.11)">
     <defs>
      <path d="M 2384 0 
L 1822 0 
L 1822 3584 
Q 1619 3391 1289 3197 
Q 959 3003 697 2906 
L 697 3450 
Q 1169 3672 1522 3987 
Q 1875 4303 2022 4600 
L 2384 4600 
L 2384 0 
z
" id="ArialMT-31" transform="scale(0.015625)"/>
     </defs>
     <use xlink:href="#ArialMT-31"/>
    </g>
   </g>
   <g id="text_2">
    <!-- 5.1% -->
    <g style="fill:#262626;" transform="translate(334.752784 255.415512)scale(0.12 -0.12)">
     <defs>
      <path d="M 266 1200 
L 856 1250 
Q 922 819 1161 601 
Q 1400 384 1738 384 
Q 2144 384 2425 690 
Q 2706 997 2706 1503 
Q 2706 1984 2436 2262 
Q 2166 2541 1728 2541 
Q 1456 2541 1237 2417 
Q 1019 2294 894 2097 
L 366 2166 
L 809 4519 
L 3088 4519 
L 3088 3981 
L 1259 3981 
L 1013 2750 
Q 1425 3038 1878 3038 
Q 2478 3038 2890 2622 
Q 3303 2206 3303 1553 
Q 3303 931 2941 478 
Q 2500 -78 1738 -78 
Q 1113 -78 717 272 
Q 322 622 266 1200 
z
" id="ArialMT-35" transform="scale(0.015625)"/>
      <path d="M 581 0 
L 581 641 
L 1222 641 
L 1222 0 
L 581 0 
z
" id="ArialMT-2e" transform="scale(0.015625)"/>
      <path d="M 372 3481 
Q 372 3972 619 4315 
Q 866 4659 1334 4659 
Q 1766 4659 2048 4351 
Q 2331 4044 2331 3447 
Q 2331 2866 2045 2552 
Q 1759 2238 1341 2238 
Q 925 2238 648 2547 
Q 372 2856 372 3481 
z
M 1350 4272 
Q 1141 4272 1002 4090 
Q 863 3909 863 3425 
Q 863 2984 1003 2804 
Q 1144 2625 1350 2625 
Q 1563 2625 1702 2806 
Q 1841 2988 1841 3469 
Q 1841 3913 1700 4092 
Q 1559 4272 1350 4272 
z
M 1353 -169 
L 3859 4659 
L 4316 4659 
L 1819 -169 
L 1353 -169 
z
M 3334 1075 
Q 3334 1569 3581 1911 
Q 3828 2253 4300 2253 
Q 4731 2253 5014 1945 
Q 5297 1638 5297 1041 
Q 5297 459 5011 145 
Q 4725 -169 4303 -169 
Q 3888 -169 3611 142 
Q 3334 453 3334 1075 
z
M 4316 1866 
Q 4103 1866 3964 1684 
Q 3825 1503 3825 1019 
Q 3825 581 3965 400 
Q 4106 219 4313 219 
Q 4528 219 4667 400 
Q 4806 581 4806 1063 
Q 4806 1506 4665 1686 
Q 4525 1866 4316 1866 
z
" id="ArialMT-25" transform="scale(0.015625)"/>
     </defs>
     <use xlink:href="#ArialMT-35"/>
     <use x="55.615234" xlink:href="#ArialMT-2e"/>
     <use x="83.398438" xlink:href="#ArialMT-31"/>
     <use x="139.013672" xlink:href="#ArialMT-25"/>
    </g>
   </g>
   <g id="text_3">
    <!-- 2 -->
    <g style="fill:#262626;" transform="translate(265.55122 55.857395)scale(0.11 -0.11)">
     <defs>
      <path d="M 3222 541 
L 3222 0 
L 194 0 
Q 188 203 259 391 
Q 375 700 629 1000 
Q 884 1300 1366 1694 
Q 2113 2306 2375 2664 
Q 2638 3022 2638 3341 
Q 2638 3675 2398 3904 
Q 2159 4134 1775 4134 
Q 1369 4134 1125 3890 
Q 881 3647 878 3216 
L 300 3275 
Q 359 3922 746 4261 
Q 1134 4600 1788 4600 
Q 2447 4600 2831 4234 
Q 3216 3869 3216 3328 
Q 3216 3053 3103 2787 
Q 2991 2522 2730 2228 
Q 2469 1934 1863 1422 
Q 1356 997 1212 845 
Q 1069 694 975 541 
L 3222 541 
z
" id="ArialMT-32" transform="scale(0.015625)"/>
     </defs>
     <use xlink:href="#ArialMT-32"/>
    </g>
   </g>
   <g id="text_4">
    <!-- 37.8% -->
    <g style="fill:#262626;" transform="translate(241.049588 173.294391)scale(0.12 -0.12)">
     <defs>
      <path d="M 269 1209 
L 831 1284 
Q 928 806 1161 595 
Q 1394 384 1728 384 
Q 2125 384 2398 659 
Q 2672 934 2672 1341 
Q 2672 1728 2419 1979 
Q 2166 2231 1775 2231 
Q 1616 2231 1378 2169 
L 1441 2663 
Q 1497 2656 1531 2656 
Q 1891 2656 2178 2843 
Q 2466 3031 2466 3422 
Q 2466 3731 2256 3934 
Q 2047 4138 1716 4138 
Q 1388 4138 1169 3931 
Q 950 3725 888 3313 
L 325 3413 
Q 428 3978 793 4289 
Q 1159 4600 1703 4600 
Q 2078 4600 2393 4439 
Q 2709 4278 2876 4000 
Q 3044 3722 3044 3409 
Q 3044 3113 2884 2869 
Q 2725 2625 2413 2481 
Q 2819 2388 3044 2092 
Q 3269 1797 3269 1353 
Q 3269 753 2831 336 
Q 2394 -81 1725 -81 
Q 1122 -81 723 278 
Q 325 638 269 1209 
z
" id="ArialMT-33" transform="scale(0.015625)"/>
      <path d="M 303 3981 
L 303 4522 
L 3269 4522 
L 3269 4084 
Q 2831 3619 2401 2847 
Q 1972 2075 1738 1259 
Q 1569 684 1522 0 
L 944 0 
Q 953 541 1156 1306 
Q 1359 2072 1739 2783 
Q 2119 3494 2547 3981 
L 303 3981 
z
" id="ArialMT-37" transform="scale(0.015625)"/>
      <path d="M 1131 2484 
Q 781 2613 612 2850 
Q 444 3088 444 3419 
Q 444 3919 803 4259 
Q 1163 4600 1759 4600 
Q 2359 4600 2725 4251 
Q 3091 3903 3091 3403 
Q 3091 3084 2923 2848 
Q 2756 2613 2416 2484 
Q 2838 2347 3058 2040 
Q 3278 1734 3278 1309 
Q 3278 722 2862 322 
Q 2447 -78 1769 -78 
Q 1091 -78 675 323 
Q 259 725 259 1325 
Q 259 1772 486 2073 
Q 713 2375 1131 2484 
z
M 1019 3438 
Q 1019 3113 1228 2906 
Q 1438 2700 1772 2700 
Q 2097 2700 2305 2904 
Q 2513 3109 2513 3406 
Q 2513 3716 2298 3927 
Q 2084 4138 1766 4138 
Q 1444 4138 1231 3931 
Q 1019 3725 1019 3438 
z
M 838 1322 
Q 838 1081 952 856 
Q 1066 631 1291 507 
Q 1516 384 1775 384 
Q 2178 384 2440 643 
Q 2703 903 2703 1303 
Q 2703 1709 2433 1975 
Q 2163 2241 1756 2241 
Q 1359 2241 1098 1978 
Q 838 1716 838 1322 
z
" id="ArialMT-38" transform="scale(0.015625)"/>
     </defs>
     <use xlink:href="#ArialMT-33"/>
     <use x="55.615234" xlink:href="#ArialMT-37"/>
     <use x="111.230469" xlink:href="#ArialMT-2e"/>
     <use x="139.013672" xlink:href="#ArialMT-38"/>
     <use x="194.628906" xlink:href="#ArialMT-25"/>
    </g>
   </g>
   <g id="text_5">
    <!-- 3 -->
    <g style="fill:#262626;" transform="translate(123.011957 447.563648)scale(0.11 -0.11)">
     <use xlink:href="#ArialMT-33"/>
    </g>
   </g>
   <g id="text_6">
    <!-- 44.9% -->
    <g style="fill:#262626;" transform="translate(179.039484 351.342688)scale(0.12 -0.12)">
     <defs>
      <path d="M 2069 0 
L 2069 1097 
L 81 1097 
L 81 1613 
L 2172 4581 
L 2631 4581 
L 2631 1613 
L 3250 1613 
L 3250 1097 
L 2631 1097 
L 2631 0 
L 2069 0 
z
M 2069 1613 
L 2069 3678 
L 634 1613 
L 2069 1613 
z
" id="ArialMT-34" transform="scale(0.015625)"/>
      <path d="M 350 1059 
L 891 1109 
Q 959 728 1153 556 
Q 1347 384 1650 384 
Q 1909 384 2104 503 
Q 2300 622 2425 820 
Q 2550 1019 2634 1356 
Q 2719 1694 2719 2044 
Q 2719 2081 2716 2156 
Q 2547 1888 2255 1720 
Q 1963 1553 1622 1553 
Q 1053 1553 659 1965 
Q 266 2378 266 3053 
Q 266 3750 677 4175 
Q 1088 4600 1706 4600 
Q 2153 4600 2523 4359 
Q 2894 4119 3086 3673 
Q 3278 3228 3278 2384 
Q 3278 1506 3087 986 
Q 2897 466 2520 194 
Q 2144 -78 1638 -78 
Q 1100 -78 759 220 
Q 419 519 350 1059 
z
M 2653 3081 
Q 2653 3566 2395 3850 
Q 2138 4134 1775 4134 
Q 1400 4134 1122 3828 
Q 844 3522 844 3034 
Q 844 2597 1108 2323 
Q 1372 2050 1759 2050 
Q 2150 2050 2401 2323 
Q 2653 2597 2653 3081 
z
" id="ArialMT-39" transform="scale(0.015625)"/>
     </defs>
     <use xlink:href="#ArialMT-34"/>
     <use x="55.615234" xlink:href="#ArialMT-34"/>
     <use x="111.230469" xlink:href="#ArialMT-2e"/>
     <use x="139.013672" xlink:href="#ArialMT-39"/>
     <use x="194.628906" xlink:href="#ArialMT-25"/>
    </g>
   </g>
   <g id="text_7">
    <!-- 4 -->
    <g style="fill:#262626;" transform="translate(444.786763 366.094812)scale(0.11 -0.11)">
     <use xlink:href="#ArialMT-34"/>
    </g>
   </g>
   <g id="text_8">
    <!-- 9.8% -->
    <g style="fill:#262626;" transform="translate(325.856853 314.311399)scale(0.12 -0.12)">
     <use xlink:href="#ArialMT-39"/>
     <use x="55.615234" xlink:href="#ArialMT-2e"/>
     <use x="83.398438" xlink:href="#ArialMT-38"/>
     <use x="139.013672" xlink:href="#ArialMT-25"/>
    </g>
   </g>
   <g id="text_9">
    <!-- 5 -->
    <g style="fill:#262626;" transform="translate(465.796032 294.211962)scale(0.11 -0.11)">
     <use xlink:href="#ArialMT-35"/>
    </g>
   </g>
   <g id="text_10">
    <!-- 1.3% -->
    <g style="fill:#262626;" transform="translate(335.40652 281.637376)scale(0.12 -0.12)">
     <use xlink:href="#ArialMT-31"/>
     <use x="55.615234" xlink:href="#ArialMT-2e"/>
     <use x="83.398438" xlink:href="#ArialMT-33"/>
     <use x="139.013672" xlink:href="#ArialMT-25"/>
    </g>
   </g>
   <g id="text_11">
    <!-- 6 -->
    <g style="fill:#262626;" transform="translate(466.78058 282.140075)scale(0.11 -0.11)">
     <defs>
      <path d="M 3184 3459 
L 2625 3416 
Q 2550 3747 2413 3897 
Q 2184 4138 1850 4138 
Q 1581 4138 1378 3988 
Q 1113 3794 959 3422 
Q 806 3050 800 2363 
Q 1003 2672 1297 2822 
Q 1591 2972 1913 2972 
Q 2475 2972 2870 2558 
Q 3266 2144 3266 1488 
Q 3266 1056 3080 686 
Q 2894 316 2569 119 
Q 2244 -78 1831 -78 
Q 1128 -78 684 439 
Q 241 956 241 2144 
Q 241 3472 731 4075 
Q 1159 4600 1884 4600 
Q 2425 4600 2770 4297 
Q 3116 3994 3184 3459 
z
M 888 1484 
Q 888 1194 1011 928 
Q 1134 663 1356 523 
Q 1578 384 1822 384 
Q 2178 384 2434 671 
Q 2691 959 2691 1453 
Q 2691 1928 2437 2201 
Q 2184 2475 1800 2475 
Q 1419 2475 1153 2201 
Q 888 1928 888 1484 
z
" id="ArialMT-36" transform="scale(0.015625)"/>
     </defs>
     <use xlink:href="#ArialMT-36"/>
    </g>
   </g>
   <g id="text_12">
    <!-- 0.4% -->
    <g style="fill:#262626;" transform="translate(335.854042 276.150155)scale(0.12 -0.12)">
     <defs>
      <path d="M 266 2259 
Q 266 3072 433 3567 
Q 600 4063 929 4331 
Q 1259 4600 1759 4600 
Q 2128 4600 2406 4451 
Q 2684 4303 2865 4023 
Q 3047 3744 3150 3342 
Q 3253 2941 3253 2259 
Q 3253 1453 3087 958 
Q 2922 463 2592 192 
Q 2263 -78 1759 -78 
Q 1097 -78 719 397 
Q 266 969 266 2259 
z
M 844 2259 
Q 844 1131 1108 757 
Q 1372 384 1759 384 
Q 2147 384 2411 759 
Q 2675 1134 2675 2259 
Q 2675 3391 2411 3762 
Q 2147 4134 1753 4134 
Q 1366 4134 1134 3806 
Q 844 3388 844 2259 
z
" id="ArialMT-30" transform="scale(0.015625)"/>
     </defs>
     <use xlink:href="#ArialMT-30"/>
     <use x="55.615234" xlink:href="#ArialMT-2e"/>
     <use x="83.398438" xlink:href="#ArialMT-34"/>
     <use x="139.013672" xlink:href="#ArialMT-25"/>
    </g>
   </g>
   <g id="text_13">
    <!-- 7 -->
    <g style="fill:#262626;" transform="translate(466.946934 278.409933)scale(0.11 -0.11)">
     <use xlink:href="#ArialMT-37"/>
    </g>
   </g>
   <g id="text_14">
    <!-- 0.1% -->
    <g style="fill:#262626;" transform="translate(335.929658 274.454636)scale(0.12 -0.12)">
     <use xlink:href="#ArialMT-30"/>
     <use x="55.615234" xlink:href="#ArialMT-2e"/>
     <use x="83.398438" xlink:href="#ArialMT-31"/>
     <use x="139.013672" xlink:href="#ArialMT-25"/>
    </g>
   </g>
   <g id="text_15">
    <!-- 8 -->
    <g style="fill:#262626;" transform="translate(466.995745 276.90373)scale(0.11 -0.11)">
     <use xlink:href="#ArialMT-38"/>
    </g>
   </g>
   <g id="text_16">
    <!-- 0.1% -->
    <g style="fill:#262626;" transform="translate(335.951844 273.769998)scale(0.12 -0.12)">
     <use xlink:href="#ArialMT-30"/>
     <use x="55.615234" xlink:href="#ArialMT-2e"/>
     <use x="83.398438" xlink:href="#ArialMT-31"/>
     <use x="139.013672" xlink:href="#ArialMT-25"/>
    </g>
   </g>
   <g id="text_17">
    <!-- 9 -->
    <g style="fill:#262626;" transform="translate(467.022968 275.87703)scale(0.11 -0.11)">
     <use xlink:href="#ArialMT-39"/>
    </g>
   </g>
   <g id="text_18">
    <!-- 0.0% -->
    <g style="fill:#262626;" transform="translate(335.964218 273.303316)scale(0.12 -0.12)">
     <use xlink:href="#ArialMT-30"/>
     <use x="55.615234" xlink:href="#ArialMT-2e"/>
     <use x="83.398438" xlink:href="#ArialMT-30"/>
     <use x="139.013672" xlink:href="#ArialMT-25"/>
    </g>
   </g>
   <g id="text_19">
    <!-- 10 -->
    <g style="fill:#262626;" transform="translate(467.03752 275.234082)scale(0.11 -0.11)">
     <use xlink:href="#ArialMT-31"/>
     <use x="55.615234" xlink:href="#ArialMT-30"/>
    </g>
   </g>
   <g id="text_20">
    <!-- 0.1% -->
    <g style="fill:#262626;" transform="translate(335.970833 273.011067)scale(0.12 -0.12)">
     <use xlink:href="#ArialMT-30"/>
     <use x="55.615234" xlink:href="#ArialMT-2e"/>
     <use x="83.398438" xlink:href="#ArialMT-31"/>
     <use x="139.013672" xlink:href="#ArialMT-25"/>
    </g>
   </g>
   <g id="text_21">
    <!-- 11 -->
    <g style="fill:#262626;" transform="translate(467.047309 274.744646)scale(0.11 -0.11)">
     <use xlink:href="#ArialMT-31"/>
     <use x="48.240234" xlink:href="#ArialMT-31"/>
    </g>
   </g>
   <g id="text_22">
    <!-- 0.0% -->
    <g style="fill:#262626;" transform="translate(335.975283 272.788596)scale(0.12 -0.12)">
     <use xlink:href="#ArialMT-30"/>
     <use x="55.615234" xlink:href="#ArialMT-2e"/>
     <use x="83.398438" xlink:href="#ArialMT-30"/>
     <use x="139.013672" xlink:href="#ArialMT-25"/>
    </g>
   </g>
   <g id="text_23">
    <!-- 12 -->
    <g style="fill:#262626;" transform="translate(467.055345 274.293578)scale(0.11 -0.11)">
     <use xlink:href="#ArialMT-31"/>
     <use x="55.615234" xlink:href="#ArialMT-32"/>
    </g>
   </g>
   <g id="text_24">
    <!-- 0.1% -->
    <g style="fill:#262626;" transform="translate(335.978935 272.583565)scale(0.12 -0.12)">
     <use xlink:href="#ArialMT-30"/>
     <use x="55.615234" xlink:href="#ArialMT-2e"/>
     <use x="83.398438" xlink:href="#ArialMT-31"/>
     <use x="139.013672" xlink:href="#ArialMT-25"/>
    </g>
   </g>
   <g id="text_25">
    <!-- 13 -->
    <g style="fill:#262626;" transform="translate(467.062717 273.823299)scale(0.11 -0.11)">
     <use xlink:href="#ArialMT-31"/>
     <use x="55.615234" xlink:href="#ArialMT-33"/>
    </g>
   </g>
   <g id="text_26">
    <!-- 0.0% -->
    <g style="fill:#262626;" transform="translate(335.982286 272.369802)scale(0.12 -0.12)">
     <use xlink:href="#ArialMT-30"/>
     <use x="55.615234" xlink:href="#ArialMT-2e"/>
     <use x="83.398438" xlink:href="#ArialMT-30"/>
     <use x="139.013672" xlink:href="#ArialMT-25"/>
    </g>
   </g>
   <g id="text_27">
    <!-- 15 -->
    <g style="fill:#262626;" transform="translate(467.071793 273.122653)scale(0.11 -0.11)">
     <use xlink:href="#ArialMT-31"/>
     <use x="55.615234" xlink:href="#ArialMT-35"/>
    </g>
   </g>
   <g id="text_28">
    <!-- 0.1% -->
    <g style="fill:#262626;" transform="translate(335.986412 272.051327)scale(0.12 -0.12)">
     <use xlink:href="#ArialMT-30"/>
     <use x="55.615234" xlink:href="#ArialMT-2e"/>
     <use x="83.398438" xlink:href="#ArialMT-31"/>
     <use x="139.013672" xlink:href="#ArialMT-25"/>
    </g>
   </g>
   <g id="text_29">
    <!-- 17 -->
    <g style="fill:#262626;" transform="translate(467.078895 272.383587)scale(0.11 -0.11)">
     <use xlink:href="#ArialMT-31"/>
     <use x="55.615234" xlink:href="#ArialMT-37"/>
    </g>
   </g>
   <g id="text_30">
    <!-- 0.0% -->
    <g style="fill:#262626;" transform="translate(335.98964 271.715388)scale(0.12 -0.12)">
     <use xlink:href="#ArialMT-30"/>
     <use x="55.615234" xlink:href="#ArialMT-2e"/>
     <use x="83.398438" xlink:href="#ArialMT-30"/>
     <use x="139.013672" xlink:href="#ArialMT-25"/>
    </g>
   </g>
   <g id="text_31">
    <!-- 20 -->
    <g style="fill:#262626;" transform="translate(467.08423 271.452529)scale(0.11 -0.11)">
     <use xlink:href="#ArialMT-32"/>
     <use x="55.615234" xlink:href="#ArialMT-30"/>
    </g>
   </g>
   <g id="text_32">
    <!-- 0.1% -->
    <g style="fill:#262626;" transform="translate(335.992065 271.292179)scale(0.12 -0.12)">
     <use xlink:href="#ArialMT-30"/>
     <use x="55.615234" xlink:href="#ArialMT-2e"/>
     <use x="83.398438" xlink:href="#ArialMT-31"/>
     <use x="139.013672" xlink:href="#ArialMT-25"/>
    </g>
   </g>
   <g id="text_33">
    <!-- BHK Percentage -->
    <g style="fill:#262626;" transform="translate(199.680937 17.220937)scale(0.14 -0.14)">
     <defs>
      <path d="M 469 0 
L 469 4581 
L 2188 4581 
Q 2713 4581 3030 4442 
Q 3347 4303 3526 4014 
Q 3706 3725 3706 3409 
Q 3706 3116 3547 2856 
Q 3388 2597 3066 2438 
Q 3481 2316 3704 2022 
Q 3928 1728 3928 1328 
Q 3928 1006 3792 729 
Q 3656 453 3456 303 
Q 3256 153 2954 76 
Q 2653 0 2216 0 
L 469 0 
z
M 1075 2656 
L 2066 2656 
Q 2469 2656 2644 2709 
Q 2875 2778 2992 2937 
Q 3109 3097 3109 3338 
Q 3109 3566 3000 3739 
Q 2891 3913 2687 3977 
Q 2484 4041 1991 4041 
L 1075 4041 
L 1075 2656 
z
M 1075 541 
L 2216 541 
Q 2509 541 2628 563 
Q 2838 600 2978 687 
Q 3119 775 3209 942 
Q 3300 1109 3300 1328 
Q 3300 1584 3169 1773 
Q 3038 1963 2805 2039 
Q 2572 2116 2134 2116 
L 1075 2116 
L 1075 541 
z
" id="ArialMT-42" transform="scale(0.015625)"/>
      <path d="M 513 0 
L 513 4581 
L 1119 4581 
L 1119 2700 
L 3500 2700 
L 3500 4581 
L 4106 4581 
L 4106 0 
L 3500 0 
L 3500 2159 
L 1119 2159 
L 1119 0 
L 513 0 
z
" id="ArialMT-48" transform="scale(0.015625)"/>
      <path d="M 469 0 
L 469 4581 
L 1075 4581 
L 1075 2309 
L 3350 4581 
L 4172 4581 
L 2250 2725 
L 4256 0 
L 3456 0 
L 1825 2319 
L 1075 1588 
L 1075 0 
L 469 0 
z
" id="ArialMT-4b" transform="scale(0.015625)"/>
      <path id="ArialMT-20" transform="scale(0.015625)"/>
      <path d="M 494 0 
L 494 4581 
L 2222 4581 
Q 2678 4581 2919 4538 
Q 3256 4481 3484 4323 
Q 3713 4166 3852 3881 
Q 3991 3597 3991 3256 
Q 3991 2672 3619 2267 
Q 3247 1863 2275 1863 
L 1100 1863 
L 1100 0 
L 494 0 
z
M 1100 2403 
L 2284 2403 
Q 2872 2403 3119 2622 
Q 3366 2841 3366 3238 
Q 3366 3525 3220 3729 
Q 3075 3934 2838 4000 
Q 2684 4041 2272 4041 
L 1100 4041 
L 1100 2403 
z
" id="ArialMT-50" transform="scale(0.015625)"/>
      <path d="M 2694 1069 
L 3275 997 
Q 3138 488 2766 206 
Q 2394 -75 1816 -75 
Q 1088 -75 661 373 
Q 234 822 234 1631 
Q 234 2469 665 2931 
Q 1097 3394 1784 3394 
Q 2450 3394 2872 2941 
Q 3294 2488 3294 1666 
Q 3294 1616 3291 1516 
L 816 1516 
Q 847 969 1125 678 
Q 1403 388 1819 388 
Q 2128 388 2347 550 
Q 2566 713 2694 1069 
z
M 847 1978 
L 2700 1978 
Q 2663 2397 2488 2606 
Q 2219 2931 1791 2931 
Q 1403 2931 1139 2672 
Q 875 2413 847 1978 
z
" id="ArialMT-65" transform="scale(0.015625)"/>
      <path d="M 416 0 
L 416 3319 
L 922 3319 
L 922 2816 
Q 1116 3169 1280 3281 
Q 1444 3394 1641 3394 
Q 1925 3394 2219 3213 
L 2025 2691 
Q 1819 2813 1613 2813 
Q 1428 2813 1281 2702 
Q 1134 2591 1072 2394 
Q 978 2094 978 1738 
L 978 0 
L 416 0 
z
" id="ArialMT-72" transform="scale(0.015625)"/>
      <path d="M 2588 1216 
L 3141 1144 
Q 3050 572 2676 248 
Q 2303 -75 1759 -75 
Q 1078 -75 664 370 
Q 250 816 250 1647 
Q 250 2184 428 2587 
Q 606 2991 970 3192 
Q 1334 3394 1763 3394 
Q 2303 3394 2647 3120 
Q 2991 2847 3088 2344 
L 2541 2259 
Q 2463 2594 2264 2762 
Q 2066 2931 1784 2931 
Q 1359 2931 1093 2626 
Q 828 2322 828 1663 
Q 828 994 1084 691 
Q 1341 388 1753 388 
Q 2084 388 2306 591 
Q 2528 794 2588 1216 
z
" id="ArialMT-63" transform="scale(0.015625)"/>
      <path d="M 422 0 
L 422 3319 
L 928 3319 
L 928 2847 
Q 1294 3394 1984 3394 
Q 2284 3394 2536 3286 
Q 2788 3178 2913 3003 
Q 3038 2828 3088 2588 
Q 3119 2431 3119 2041 
L 3119 0 
L 2556 0 
L 2556 2019 
Q 2556 2363 2490 2533 
Q 2425 2703 2258 2804 
Q 2091 2906 1866 2906 
Q 1506 2906 1245 2678 
Q 984 2450 984 1813 
L 984 0 
L 422 0 
z
" id="ArialMT-6e" transform="scale(0.015625)"/>
      <path d="M 1650 503 
L 1731 6 
Q 1494 -44 1306 -44 
Q 1000 -44 831 53 
Q 663 150 594 308 
Q 525 466 525 972 
L 525 2881 
L 113 2881 
L 113 3319 
L 525 3319 
L 525 4141 
L 1084 4478 
L 1084 3319 
L 1650 3319 
L 1650 2881 
L 1084 2881 
L 1084 941 
Q 1084 700 1114 631 
Q 1144 563 1211 522 
Q 1278 481 1403 481 
Q 1497 481 1650 503 
z
" id="ArialMT-74" transform="scale(0.015625)"/>
      <path d="M 2588 409 
Q 2275 144 1986 34 
Q 1697 -75 1366 -75 
Q 819 -75 525 192 
Q 231 459 231 875 
Q 231 1119 342 1320 
Q 453 1522 633 1644 
Q 813 1766 1038 1828 
Q 1203 1872 1538 1913 
Q 2219 1994 2541 2106 
Q 2544 2222 2544 2253 
Q 2544 2597 2384 2738 
Q 2169 2928 1744 2928 
Q 1347 2928 1158 2789 
Q 969 2650 878 2297 
L 328 2372 
Q 403 2725 575 2942 
Q 747 3159 1072 3276 
Q 1397 3394 1825 3394 
Q 2250 3394 2515 3294 
Q 2781 3194 2906 3042 
Q 3031 2891 3081 2659 
Q 3109 2516 3109 2141 
L 3109 1391 
Q 3109 606 3145 398 
Q 3181 191 3288 0 
L 2700 0 
Q 2613 175 2588 409 
z
M 2541 1666 
Q 2234 1541 1622 1453 
Q 1275 1403 1131 1340 
Q 988 1278 909 1158 
Q 831 1038 831 891 
Q 831 666 1001 516 
Q 1172 366 1500 366 
Q 1825 366 2078 508 
Q 2331 650 2450 897 
Q 2541 1088 2541 1459 
L 2541 1666 
z
" id="ArialMT-61" transform="scale(0.015625)"/>
      <path d="M 319 -275 
L 866 -356 
Q 900 -609 1056 -725 
Q 1266 -881 1628 -881 
Q 2019 -881 2231 -725 
Q 2444 -569 2519 -288 
Q 2563 -116 2559 434 
Q 2191 0 1641 0 
Q 956 0 581 494 
Q 206 988 206 1678 
Q 206 2153 378 2554 
Q 550 2956 876 3175 
Q 1203 3394 1644 3394 
Q 2231 3394 2613 2919 
L 2613 3319 
L 3131 3319 
L 3131 450 
Q 3131 -325 2973 -648 
Q 2816 -972 2473 -1159 
Q 2131 -1347 1631 -1347 
Q 1038 -1347 672 -1080 
Q 306 -813 319 -275 
z
M 784 1719 
Q 784 1066 1043 766 
Q 1303 466 1694 466 
Q 2081 466 2343 764 
Q 2606 1063 2606 1700 
Q 2606 2309 2336 2618 
Q 2066 2928 1684 2928 
Q 1309 2928 1046 2623 
Q 784 2319 784 1719 
z
" id="ArialMT-67" transform="scale(0.015625)"/>
     </defs>
     <use xlink:href="#ArialMT-42"/>
     <use x="66.699219" xlink:href="#ArialMT-48"/>
     <use x="138.916016" xlink:href="#ArialMT-4b"/>
     <use x="205.615234" xlink:href="#ArialMT-20"/>
     <use x="233.398438" xlink:href="#ArialMT-50"/>
     <use x="300.097656" xlink:href="#ArialMT-65"/>
     <use x="355.712891" xlink:href="#ArialMT-72"/>
     <use x="389.013672" xlink:href="#ArialMT-63"/>
     <use x="439.013672" xlink:href="#ArialMT-65"/>
     <use x="494.628906" xlink:href="#ArialMT-6e"/>
     <use x="550.244141" xlink:href="#ArialMT-74"/>
     <use x="578.027344" xlink:href="#ArialMT-61"/>
     <use x="633.642578" xlink:href="#ArialMT-67"/>
     <use x="689.257812" xlink:href="#ArialMT-65"/>
    </g>
   </g>
  </g>
 </g>
</svg>
