<?xml version="1.0" encoding="utf-8" standalone="no"?>
<!DOCTYPE svg PUBLIC "-//W3C//DTD SVG 1.1//EN"
  "http://www.w3.org/Graphics/SVG/1.1/DTD/svg11.dtd">
<svg height="637.060923pt" version="1.1" viewBox="0 0 976.315625 637.060923" width="976.315625pt" xmlns="http://www.w3.org/2000/svg" xmlns:xlink="http://www.w3.org/1999/xlink">
 <metadata>
  <rdf:RDF xmlns:cc="http://creativecommons.org/ns#" xmlns:dc="http://purl.org/dc/elements/1.1/" xmlns:rdf="http://www.w3.org/1999/02/22-rdf-syntax-ns#">
   <cc:Work>
    <dc:type rdf:resource="http://purl.org/dc/dcmitype/StillImage"/>
    <dc:date>2021-08-24T19:21:19.437047</dc:date>
    <dc:format>image/svg+xml</dc:format>
    <dc:creator>
     <cc:Agent>
      <dc:title>Matplotlib v3.4.2, https://matplotlib.org/</dc:title>
     </cc:Agent>
    </dc:creator>
   </cc:Work>
  </rdf:RDF>
 </metadata>
 <defs>
  <style type="text/css">*{stroke-linecap:butt;stroke-linejoin:round;}</style>
 </defs>
 <g id="figure_1">
  <g id="patch_1">
   <path d="M 0 637.060923 
L 976.315625 637.060923 
L 976.315625 0 
L 0 0 
z
" style="fill:#ffffff;"/>
  </g>
  <g id="axes_1">
   <g id="patch_2">
    <path d="M 76.315625 496.44 
L 969.115625 496.44 
L 969.115625 7.2 
L 76.315625 7.2 
z
" style="fill:#ffffff;"/>
   </g>
   <g id="matplotlib.axis_1">
    <g id="xtick_1">
     <g id="text_1">
      <!-- agra -->
      <g style="fill:#262626;" transform="translate(109.500495 545.747902)rotate(-45)scale(0.2 -0.2)">
       <defs>
        <path d="M 1116 2306 
L 319 2450 
Q 453 2931 781 3162 
Q 1109 3394 1756 3394 
Q 2344 3394 2631 3255 
Q 2919 3116 3036 2902 
Q 3153 2688 3153 2116 
L 3144 1091 
Q 3144 653 3186 445 
Q 3228 238 3344 0 
L 2475 0 
Q 2441 88 2391 259 
Q 2369 338 2359 363 
Q 2134 144 1878 34 
Q 1622 -75 1331 -75 
Q 819 -75 523 203 
Q 228 481 228 906 
Q 228 1188 362 1408 
Q 497 1628 739 1745 
Q 981 1863 1438 1950 
Q 2053 2066 2291 2166 
L 2291 2253 
Q 2291 2506 2166 2614 
Q 2041 2722 1694 2722 
Q 1459 2722 1328 2630 
Q 1197 2538 1116 2306 
z
M 2291 1594 
Q 2122 1538 1756 1459 
Q 1391 1381 1278 1306 
Q 1106 1184 1106 997 
Q 1106 813 1243 678 
Q 1381 544 1594 544 
Q 1831 544 2047 700 
Q 2206 819 2256 991 
Q 2291 1103 2291 1419 
L 2291 1594 
z
" id="Arial-BoldMT-61" transform="scale(0.015625)"/>
        <path d="M 378 -219 
L 1381 -341 
Q 1406 -516 1497 -581 
Q 1622 -675 1891 -675 
Q 2234 -675 2406 -572 
Q 2522 -503 2581 -350 
Q 2622 -241 2622 53 
L 2622 538 
Q 2228 0 1628 0 
Q 959 0 569 566 
Q 263 1013 263 1678 
Q 263 2513 664 2953 
Q 1066 3394 1663 3394 
Q 2278 3394 2678 2853 
L 2678 3319 
L 3500 3319 
L 3500 341 
Q 3500 -247 3403 -537 
Q 3306 -828 3131 -993 
Q 2956 -1159 2664 -1253 
Q 2372 -1347 1925 -1347 
Q 1081 -1347 728 -1058 
Q 375 -769 375 -325 
Q 375 -281 378 -219 
z
M 1163 1728 
Q 1163 1200 1367 954 
Q 1572 709 1872 709 
Q 2194 709 2416 961 
Q 2638 1213 2638 1706 
Q 2638 2222 2425 2472 
Q 2213 2722 1888 2722 
Q 1572 2722 1367 2476 
Q 1163 2231 1163 1728 
z
" id="Arial-BoldMT-67" transform="scale(0.015625)"/>
        <path d="M 1300 0 
L 422 0 
L 422 3319 
L 1238 3319 
L 1238 2847 
Q 1447 3181 1614 3287 
Q 1781 3394 1994 3394 
Q 2294 3394 2572 3228 
L 2300 2463 
Q 2078 2606 1888 2606 
Q 1703 2606 1575 2504 
Q 1447 2403 1373 2137 
Q 1300 1872 1300 1025 
L 1300 0 
z
" id="Arial-BoldMT-72" transform="scale(0.015625)"/>
       </defs>
       <use xlink:href="#Arial-BoldMT-61"/>
       <use x="55.615234" xlink:href="#Arial-BoldMT-67"/>
       <use x="116.699219" xlink:href="#Arial-BoldMT-72"/>
       <use x="155.615234" xlink:href="#Arial-BoldMT-61"/>
      </g>
     </g>
    </g>
    <g id="xtick_2">
     <g id="text_2">
      <!-- chennai -->
      <g style="fill:#262626;" transform="translate(187.183944 569.497851)rotate(-45)scale(0.2 -0.2)">
       <defs>
        <path d="M 3353 2338 
L 2488 2181 
Q 2444 2441 2289 2572 
Q 2134 2703 1888 2703 
Q 1559 2703 1364 2476 
Q 1169 2250 1169 1719 
Q 1169 1128 1367 884 
Q 1566 641 1900 641 
Q 2150 641 2309 783 
Q 2469 925 2534 1272 
L 3397 1125 
Q 3263 531 2881 228 
Q 2500 -75 1859 -75 
Q 1131 -75 698 384 
Q 266 844 266 1656 
Q 266 2478 700 2936 
Q 1134 3394 1875 3394 
Q 2481 3394 2839 3133 
Q 3197 2872 3353 2338 
z
" id="Arial-BoldMT-63" transform="scale(0.015625)"/>
        <path d="M 1334 4581 
L 1334 2897 
Q 1759 3394 2350 3394 
Q 2653 3394 2897 3281 
Q 3141 3169 3264 2994 
Q 3388 2819 3433 2606 
Q 3478 2394 3478 1947 
L 3478 0 
L 2600 0 
L 2600 1753 
Q 2600 2275 2550 2415 
Q 2500 2556 2373 2639 
Q 2247 2722 2056 2722 
Q 1838 2722 1666 2615 
Q 1494 2509 1414 2295 
Q 1334 2081 1334 1663 
L 1334 0 
L 456 0 
L 456 4581 
L 1334 4581 
z
" id="Arial-BoldMT-68" transform="scale(0.015625)"/>
        <path d="M 2381 1056 
L 3256 909 
Q 3088 428 2723 176 
Q 2359 -75 1813 -75 
Q 947 -75 531 491 
Q 203 944 203 1634 
Q 203 2459 634 2926 
Q 1066 3394 1725 3394 
Q 2466 3394 2894 2905 
Q 3322 2416 3303 1406 
L 1103 1406 
Q 1113 1016 1316 798 
Q 1519 581 1822 581 
Q 2028 581 2168 693 
Q 2309 806 2381 1056 
z
M 2431 1944 
Q 2422 2325 2234 2523 
Q 2047 2722 1778 2722 
Q 1491 2722 1303 2513 
Q 1116 2303 1119 1944 
L 2431 1944 
z
" id="Arial-BoldMT-65" transform="scale(0.015625)"/>
        <path d="M 3478 0 
L 2600 0 
L 2600 1694 
Q 2600 2231 2544 2389 
Q 2488 2547 2361 2634 
Q 2234 2722 2056 2722 
Q 1828 2722 1647 2597 
Q 1466 2472 1398 2265 
Q 1331 2059 1331 1503 
L 1331 0 
L 453 0 
L 453 3319 
L 1269 3319 
L 1269 2831 
Q 1703 3394 2363 3394 
Q 2653 3394 2893 3289 
Q 3134 3184 3257 3021 
Q 3381 2859 3429 2653 
Q 3478 2447 3478 2063 
L 3478 0 
z
" id="Arial-BoldMT-6e" transform="scale(0.015625)"/>
        <path d="M 459 3769 
L 459 4581 
L 1338 4581 
L 1338 3769 
L 459 3769 
z
M 459 0 
L 459 3319 
L 1338 3319 
L 1338 0 
L 459 0 
z
" id="Arial-BoldMT-69" transform="scale(0.015625)"/>
       </defs>
       <use xlink:href="#Arial-BoldMT-63"/>
       <use x="55.615234" xlink:href="#Arial-BoldMT-68"/>
       <use x="116.699219" xlink:href="#Arial-BoldMT-65"/>
       <use x="172.314453" xlink:href="#Arial-BoldMT-6e"/>
       <use x="233.398438" xlink:href="#Arial-BoldMT-6e"/>
       <use x="294.482422" xlink:href="#Arial-BoldMT-61"/>
       <use x="350.097656" xlink:href="#Arial-BoldMT-69"/>
      </g>
     </g>
    </g>
    <g id="xtick_3">
     <g id="text_3">
      <!-- goa -->
      <g style="fill:#262626;" transform="translate(290.425988 541.016916)rotate(-45)scale(0.2 -0.2)">
       <defs>
        <path d="M 256 1706 
Q 256 2144 472 2553 
Q 688 2963 1083 3178 
Q 1478 3394 1966 3394 
Q 2719 3394 3200 2905 
Q 3681 2416 3681 1669 
Q 3681 916 3195 420 
Q 2709 -75 1972 -75 
Q 1516 -75 1102 131 
Q 688 338 472 736 
Q 256 1134 256 1706 
z
M 1156 1659 
Q 1156 1166 1390 903 
Q 1625 641 1969 641 
Q 2313 641 2545 903 
Q 2778 1166 2778 1666 
Q 2778 2153 2545 2415 
Q 2313 2678 1969 2678 
Q 1625 2678 1390 2415 
Q 1156 2153 1156 1659 
z
" id="Arial-BoldMT-6f" transform="scale(0.015625)"/>
       </defs>
       <use xlink:href="#Arial-BoldMT-67"/>
       <use x="61.083984" xlink:href="#Arial-BoldMT-6f"/>
       <use x="122.167969" xlink:href="#Arial-BoldMT-61"/>
      </g>
     </g>
    </g>
    <g id="xtick_4">
     <g id="text_4">
      <!-- jaipur -->
      <g style="fill:#262626;" transform="translate(373.117742 554.56464)rotate(-45)scale(0.2 -0.2)">
       <defs>
        <path d="M 441 3769 
L 441 4581 
L 1319 4581 
L 1319 3769 
L 441 3769 
z
M 1319 3319 
L 1319 103 
Q 1319 -531 1236 -792 
Q 1153 -1053 917 -1200 
Q 681 -1347 316 -1347 
Q 184 -1347 32 -1323 
Q -119 -1300 -294 -1253 
L -141 -503 
Q -78 -516 -23 -523 
Q 31 -531 78 -531 
Q 213 -531 298 -473 
Q 384 -416 412 -334 
Q 441 -253 441 153 
L 441 3319 
L 1319 3319 
z
" id="Arial-BoldMT-6a" transform="scale(0.015625)"/>
        <path d="M 434 3319 
L 1253 3319 
L 1253 2831 
Q 1413 3081 1684 3237 
Q 1956 3394 2288 3394 
Q 2866 3394 3269 2941 
Q 3672 2488 3672 1678 
Q 3672 847 3265 386 
Q 2859 -75 2281 -75 
Q 2006 -75 1782 34 
Q 1559 144 1313 409 
L 1313 -1263 
L 434 -1263 
L 434 3319 
z
M 1303 1716 
Q 1303 1156 1525 889 
Q 1747 622 2066 622 
Q 2372 622 2575 867 
Q 2778 1113 2778 1672 
Q 2778 2194 2568 2447 
Q 2359 2700 2050 2700 
Q 1728 2700 1515 2451 
Q 1303 2203 1303 1716 
z
" id="Arial-BoldMT-70" transform="scale(0.015625)"/>
        <path d="M 2644 0 
L 2644 497 
Q 2463 231 2167 78 
Q 1872 -75 1544 -75 
Q 1209 -75 943 72 
Q 678 219 559 484 
Q 441 750 441 1219 
L 441 3319 
L 1319 3319 
L 1319 1794 
Q 1319 1094 1367 936 
Q 1416 778 1544 686 
Q 1672 594 1869 594 
Q 2094 594 2272 717 
Q 2450 841 2515 1023 
Q 2581 1206 2581 1919 
L 2581 3319 
L 3459 3319 
L 3459 0 
L 2644 0 
z
" id="Arial-BoldMT-75" transform="scale(0.015625)"/>
       </defs>
       <use xlink:href="#Arial-BoldMT-6a"/>
       <use x="27.783203" xlink:href="#Arial-BoldMT-61"/>
       <use x="83.398438" xlink:href="#Arial-BoldMT-69"/>
       <use x="111.181641" xlink:href="#Arial-BoldMT-70"/>
       <use x="172.265625" xlink:href="#Arial-BoldMT-75"/>
       <use x="233.349609" xlink:href="#Arial-BoldMT-72"/>
      </g>
     </g>
    </g>
    <g id="xtick_5">
     <g id="text_5">
      <!-- kochi -->
      <g style="fill:#262626;" transform="translate(463.274996 552.995747)rotate(-45)scale(0.2 -0.2)">
       <defs>
        <path d="M 428 0 
L 428 4581 
L 1306 4581 
L 1306 2150 
L 2334 3319 
L 3416 3319 
L 2281 2106 
L 3497 0 
L 2550 0 
L 1716 1491 
L 1306 1063 
L 1306 0 
L 428 0 
z
" id="Arial-BoldMT-6b" transform="scale(0.015625)"/>
       </defs>
       <use xlink:href="#Arial-BoldMT-6b"/>
       <use x="55.615234" xlink:href="#Arial-BoldMT-6f"/>
       <use x="116.699219" xlink:href="#Arial-BoldMT-63"/>
       <use x="172.314453" xlink:href="#Arial-BoldMT-68"/>
       <use x="233.398438" xlink:href="#Arial-BoldMT-69"/>
      </g>
     </g>
    </g>
    <g id="xtick_6">
     <g id="text_6">
      <!-- kolkata -->
      <g style="fill:#262626;" transform="translate(546.655074 564.795591)rotate(-45)scale(0.2 -0.2)">
       <defs>
        <path d="M 459 0 
L 459 4581 
L 1338 4581 
L 1338 0 
L 459 0 
z
" id="Arial-BoldMT-6c" transform="scale(0.015625)"/>
        <path d="M 1981 3319 
L 1981 2619 
L 1381 2619 
L 1381 1281 
Q 1381 875 1398 808 
Q 1416 741 1477 697 
Q 1538 653 1625 653 
Q 1747 653 1978 738 
L 2053 56 
Q 1747 -75 1359 -75 
Q 1122 -75 931 4 
Q 741 84 652 211 
Q 563 338 528 553 
Q 500 706 500 1172 
L 500 2619 
L 97 2619 
L 97 3319 
L 500 3319 
L 500 3978 
L 1381 4491 
L 1381 3319 
L 1981 3319 
z
" id="Arial-BoldMT-74" transform="scale(0.015625)"/>
       </defs>
       <use xlink:href="#Arial-BoldMT-6b"/>
       <use x="55.615234" xlink:href="#Arial-BoldMT-6f"/>
       <use x="116.699219" xlink:href="#Arial-BoldMT-6c"/>
       <use x="144.482422" xlink:href="#Arial-BoldMT-6b"/>
       <use x="200.097656" xlink:href="#Arial-BoldMT-61"/>
       <use x="255.712891" xlink:href="#Arial-BoldMT-74"/>
       <use x="289.013672" xlink:href="#Arial-BoldMT-61"/>
      </g>
     </g>
    </g>
    <g id="xtick_7">
     <g id="text_7">
      <!-- mumbai -->
      <g style="fill:#262626;" transform="translate(633.191721 570.282298)rotate(-45)scale(0.2 -0.2)">
       <defs>
        <path d="M 394 3319 
L 1203 3319 
L 1203 2866 
Q 1638 3394 2238 3394 
Q 2556 3394 2790 3262 
Q 3025 3131 3175 2866 
Q 3394 3131 3647 3262 
Q 3900 3394 4188 3394 
Q 4553 3394 4806 3245 
Q 5059 3097 5184 2809 
Q 5275 2597 5275 2122 
L 5275 0 
L 4397 0 
L 4397 1897 
Q 4397 2391 4306 2534 
Q 4184 2722 3931 2722 
Q 3747 2722 3584 2609 
Q 3422 2497 3350 2280 
Q 3278 2063 3278 1594 
L 3278 0 
L 2400 0 
L 2400 1819 
Q 2400 2303 2353 2443 
Q 2306 2584 2207 2653 
Q 2109 2722 1941 2722 
Q 1738 2722 1575 2612 
Q 1413 2503 1342 2297 
Q 1272 2091 1272 1613 
L 1272 0 
L 394 0 
L 394 3319 
z
" id="Arial-BoldMT-6d" transform="scale(0.015625)"/>
        <path d="M 422 0 
L 422 4581 
L 1300 4581 
L 1300 2931 
Q 1706 3394 2263 3394 
Q 2869 3394 3266 2955 
Q 3663 2516 3663 1694 
Q 3663 844 3258 384 
Q 2853 -75 2275 -75 
Q 1991 -75 1714 67 
Q 1438 209 1238 488 
L 1238 0 
L 422 0 
z
M 1294 1731 
Q 1294 1216 1456 969 
Q 1684 619 2063 619 
Q 2353 619 2558 867 
Q 2763 1116 2763 1650 
Q 2763 2219 2556 2470 
Q 2350 2722 2028 2722 
Q 1713 2722 1503 2476 
Q 1294 2231 1294 1731 
z
" id="Arial-BoldMT-62" transform="scale(0.015625)"/>
       </defs>
       <use xlink:href="#Arial-BoldMT-6d"/>
       <use x="88.916016" xlink:href="#Arial-BoldMT-75"/>
       <use x="150" xlink:href="#Arial-BoldMT-6d"/>
       <use x="238.916016" xlink:href="#Arial-BoldMT-62"/>
       <use x="300" xlink:href="#Arial-BoldMT-61"/>
       <use x="355.615234" xlink:href="#Arial-BoldMT-69"/>
      </g>
     </g>
    </g>
    <g id="xtick_8">
     <g id="text_8">
      <!-- nagpur -->
      <g style="fill:#262626;" transform="translate(725.436045 563.796803)rotate(-45)scale(0.2 -0.2)">
       <use xlink:href="#Arial-BoldMT-6e"/>
       <use x="61.083984" xlink:href="#Arial-BoldMT-61"/>
       <use x="116.699219" xlink:href="#Arial-BoldMT-67"/>
       <use x="177.783203" xlink:href="#Arial-BoldMT-70"/>
       <use x="238.867188" xlink:href="#Arial-BoldMT-75"/>
       <use x="299.951172" xlink:href="#Arial-BoldMT-72"/>
      </g>
     </g>
    </g>
    <g id="xtick_9">
     <g id="text_9">
      <!-- secunderabad -->
      <g style="fill:#262626;" transform="translate(790.921902 611.941936)rotate(-45)scale(0.2 -0.2)">
       <defs>
        <path d="M 150 947 
L 1031 1081 
Q 1088 825 1259 692 
Q 1431 559 1741 559 
Q 2081 559 2253 684 
Q 2369 772 2369 919 
Q 2369 1019 2306 1084 
Q 2241 1147 2013 1200 
Q 950 1434 666 1628 
Q 272 1897 272 2375 
Q 272 2806 612 3100 
Q 953 3394 1669 3394 
Q 2350 3394 2681 3172 
Q 3013 2950 3138 2516 
L 2309 2363 
Q 2256 2556 2107 2659 
Q 1959 2763 1684 2763 
Q 1338 2763 1188 2666 
Q 1088 2597 1088 2488 
Q 1088 2394 1175 2328 
Q 1294 2241 1995 2081 
Q 2697 1922 2975 1691 
Q 3250 1456 3250 1038 
Q 3250 581 2869 253 
Q 2488 -75 1741 -75 
Q 1063 -75 667 200 
Q 272 475 150 947 
z
" id="Arial-BoldMT-73" transform="scale(0.015625)"/>
        <path d="M 3503 0 
L 2688 0 
L 2688 488 
Q 2484 203 2207 64 
Q 1931 -75 1650 -75 
Q 1078 -75 670 386 
Q 263 847 263 1672 
Q 263 2516 659 2955 
Q 1056 3394 1663 3394 
Q 2219 3394 2625 2931 
L 2625 4581 
L 3503 4581 
L 3503 0 
z
M 1159 1731 
Q 1159 1200 1306 963 
Q 1519 619 1900 619 
Q 2203 619 2415 876 
Q 2628 1134 2628 1647 
Q 2628 2219 2422 2470 
Q 2216 2722 1894 2722 
Q 1581 2722 1370 2473 
Q 1159 2225 1159 1731 
z
" id="Arial-BoldMT-64" transform="scale(0.015625)"/>
       </defs>
       <use xlink:href="#Arial-BoldMT-73"/>
       <use x="55.615234" xlink:href="#Arial-BoldMT-65"/>
       <use x="111.230469" xlink:href="#Arial-BoldMT-63"/>
       <use x="166.845703" xlink:href="#Arial-BoldMT-75"/>
       <use x="227.929688" xlink:href="#Arial-BoldMT-6e"/>
       <use x="289.013672" xlink:href="#Arial-BoldMT-64"/>
       <use x="350.097656" xlink:href="#Arial-BoldMT-65"/>
       <use x="405.712891" xlink:href="#Arial-BoldMT-72"/>
       <use x="444.628906" xlink:href="#Arial-BoldMT-61"/>
       <use x="500.244141" xlink:href="#Arial-BoldMT-62"/>
       <use x="561.328125" xlink:href="#Arial-BoldMT-61"/>
       <use x="616.943359" xlink:href="#Arial-BoldMT-64"/>
      </g>
     </g>
    </g>
    <g id="xtick_10">
     <g id="text_10">
      <!-- vijayawada -->
      <g style="fill:#262626;" transform="translate(890.707962 590.7442)rotate(-45)scale(0.2 -0.2)">
       <defs>
        <path d="M 1372 0 
L 34 3319 
L 956 3319 
L 1581 1625 
L 1763 1059 
Q 1834 1275 1853 1344 
Q 1897 1484 1947 1625 
L 2578 3319 
L 3481 3319 
L 2163 0 
L 1372 0 
z
" id="Arial-BoldMT-76" transform="scale(0.015625)"/>
        <path d="M 44 3319 
L 978 3319 
L 1772 963 
L 2547 3319 
L 3456 3319 
L 2284 125 
L 2075 -453 
Q 1959 -744 1854 -897 
Q 1750 -1050 1614 -1145 
Q 1478 -1241 1279 -1294 
Q 1081 -1347 831 -1347 
Q 578 -1347 334 -1294 
L 256 -606 
Q 463 -647 628 -647 
Q 934 -647 1081 -467 
Q 1228 -288 1306 -9 
L 44 3319 
z
" id="Arial-BoldMT-79" transform="scale(0.015625)"/>
        <path d="M 1078 0 
L 28 3319 
L 881 3319 
L 1503 1144 
L 2075 3319 
L 2922 3319 
L 3475 1144 
L 4109 3319 
L 4975 3319 
L 3909 0 
L 3066 0 
L 2494 2134 
L 1931 0 
L 1078 0 
z
" id="Arial-BoldMT-77" transform="scale(0.015625)"/>
       </defs>
       <use xlink:href="#Arial-BoldMT-76"/>
       <use x="55.615234" xlink:href="#Arial-BoldMT-69"/>
       <use x="83.398438" xlink:href="#Arial-BoldMT-6a"/>
       <use x="111.181641" xlink:href="#Arial-BoldMT-61"/>
       <use x="166.796875" xlink:href="#Arial-BoldMT-79"/>
       <use x="222.412109" xlink:href="#Arial-BoldMT-61"/>
       <use x="278.027344" xlink:href="#Arial-BoldMT-77"/>
       <use x="355.810547" xlink:href="#Arial-BoldMT-61"/>
       <use x="411.425781" xlink:href="#Arial-BoldMT-64"/>
       <use x="472.509766" xlink:href="#Arial-BoldMT-61"/>
      </g>
     </g>
    </g>
    <g id="text_11">
     <!-- STATE_OR_CITY -->
     <g style="fill:#262626;" transform="translate(474.924688 627.475923)scale(0.12 -0.12)">
      <defs>
       <path d="M 288 1472 
L 859 1522 
Q 900 1178 1048 958 
Q 1197 738 1509 602 
Q 1822 466 2213 466 
Q 2559 466 2825 569 
Q 3091 672 3220 851 
Q 3350 1031 3350 1244 
Q 3350 1459 3225 1620 
Q 3100 1781 2813 1891 
Q 2628 1963 1997 2114 
Q 1366 2266 1113 2400 
Q 784 2572 623 2826 
Q 463 3081 463 3397 
Q 463 3744 659 4045 
Q 856 4347 1234 4503 
Q 1613 4659 2075 4659 
Q 2584 4659 2973 4495 
Q 3363 4331 3572 4012 
Q 3781 3694 3797 3291 
L 3216 3247 
Q 3169 3681 2898 3903 
Q 2628 4125 2100 4125 
Q 1550 4125 1298 3923 
Q 1047 3722 1047 3438 
Q 1047 3191 1225 3031 
Q 1400 2872 2139 2705 
Q 2878 2538 3153 2413 
Q 3553 2228 3743 1945 
Q 3934 1663 3934 1294 
Q 3934 928 3725 604 
Q 3516 281 3123 101 
Q 2731 -78 2241 -78 
Q 1619 -78 1198 103 
Q 778 284 539 648 
Q 300 1013 288 1472 
z
" id="ArialMT-53" transform="scale(0.015625)"/>
       <path d="M 1659 0 
L 1659 4041 
L 150 4041 
L 150 4581 
L 3781 4581 
L 3781 4041 
L 2266 4041 
L 2266 0 
L 1659 0 
z
" id="ArialMT-54" transform="scale(0.015625)"/>
       <path d="M -9 0 
L 1750 4581 
L 2403 4581 
L 4278 0 
L 3588 0 
L 3053 1388 
L 1138 1388 
L 634 0 
L -9 0 
z
M 1313 1881 
L 2866 1881 
L 2388 3150 
Q 2169 3728 2063 4100 
Q 1975 3659 1816 3225 
L 1313 1881 
z
" id="ArialMT-41" transform="scale(0.015625)"/>
       <path d="M 506 0 
L 506 4581 
L 3819 4581 
L 3819 4041 
L 1113 4041 
L 1113 2638 
L 3647 2638 
L 3647 2100 
L 1113 2100 
L 1113 541 
L 3925 541 
L 3925 0 
L 506 0 
z
" id="ArialMT-45" transform="scale(0.015625)"/>
       <path d="M -97 -1272 
L -97 -866 
L 3631 -866 
L 3631 -1272 
L -97 -1272 
z
" id="ArialMT-5f" transform="scale(0.015625)"/>
       <path d="M 309 2231 
Q 309 3372 921 4017 
Q 1534 4663 2503 4663 
Q 3138 4663 3647 4359 
Q 4156 4056 4423 3514 
Q 4691 2972 4691 2284 
Q 4691 1588 4409 1038 
Q 4128 488 3612 205 
Q 3097 -78 2500 -78 
Q 1853 -78 1343 234 
Q 834 547 571 1087 
Q 309 1628 309 2231 
z
M 934 2222 
Q 934 1394 1379 917 
Q 1825 441 2497 441 
Q 3181 441 3623 922 
Q 4066 1403 4066 2288 
Q 4066 2847 3877 3264 
Q 3688 3681 3323 3911 
Q 2959 4141 2506 4141 
Q 1863 4141 1398 3698 
Q 934 3256 934 2222 
z
" id="ArialMT-4f" transform="scale(0.015625)"/>
       <path d="M 503 0 
L 503 4581 
L 2534 4581 
Q 3147 4581 3465 4457 
Q 3784 4334 3975 4021 
Q 4166 3709 4166 3331 
Q 4166 2844 3850 2509 
Q 3534 2175 2875 2084 
Q 3116 1969 3241 1856 
Q 3506 1613 3744 1247 
L 4541 0 
L 3778 0 
L 3172 953 
Q 2906 1366 2734 1584 
Q 2563 1803 2427 1890 
Q 2291 1978 2150 2013 
Q 2047 2034 1813 2034 
L 1109 2034 
L 1109 0 
L 503 0 
z
M 1109 2559 
L 2413 2559 
Q 2828 2559 3062 2645 
Q 3297 2731 3419 2920 
Q 3541 3109 3541 3331 
Q 3541 3656 3305 3865 
Q 3069 4075 2559 4075 
L 1109 4075 
L 1109 2559 
z
" id="ArialMT-52" transform="scale(0.015625)"/>
       <path d="M 3763 1606 
L 4369 1453 
Q 4178 706 3683 314 
Q 3188 -78 2472 -78 
Q 1731 -78 1267 223 
Q 803 525 561 1097 
Q 319 1669 319 2325 
Q 319 3041 592 3573 
Q 866 4106 1370 4382 
Q 1875 4659 2481 4659 
Q 3169 4659 3637 4309 
Q 4106 3959 4291 3325 
L 3694 3184 
Q 3534 3684 3231 3912 
Q 2928 4141 2469 4141 
Q 1941 4141 1586 3887 
Q 1231 3634 1087 3207 
Q 944 2781 944 2328 
Q 944 1744 1114 1308 
Q 1284 872 1643 656 
Q 2003 441 2422 441 
Q 2931 441 3284 734 
Q 3638 1028 3763 1606 
z
" id="ArialMT-43" transform="scale(0.015625)"/>
       <path d="M 597 0 
L 597 4581 
L 1203 4581 
L 1203 0 
L 597 0 
z
" id="ArialMT-49" transform="scale(0.015625)"/>
       <path d="M 1784 0 
L 1784 1941 
L 19 4581 
L 756 4581 
L 1659 3200 
Q 1909 2813 2125 2425 
Q 2331 2784 2625 3234 
L 3513 4581 
L 4219 4581 
L 2391 1941 
L 2391 0 
L 1784 0 
z
" id="ArialMT-59" transform="scale(0.015625)"/>
      </defs>
      <use xlink:href="#ArialMT-53"/>
      <use x="66.699219" xlink:href="#ArialMT-54"/>
      <use x="120.408203" xlink:href="#ArialMT-41"/>
      <use x="179.732422" xlink:href="#ArialMT-54"/>
      <use x="240.816406" xlink:href="#ArialMT-45"/>
      <use x="307.515625" xlink:href="#ArialMT-5f"/>
      <use x="363.130859" xlink:href="#ArialMT-4f"/>
      <use x="440.914062" xlink:href="#ArialMT-52"/>
      <use x="513.130859" xlink:href="#ArialMT-5f"/>
      <use x="568.746094" xlink:href="#ArialMT-43"/>
      <use x="640.962891" xlink:href="#ArialMT-49"/>
      <use x="668.746094" xlink:href="#ArialMT-54"/>
      <use x="729.830078" xlink:href="#ArialMT-59"/>
     </g>
    </g>
   </g>
   <g id="matplotlib.axis_2">
    <g id="ytick_1">
     <g id="line2d_1">
      <path clip-path="url(#p339754afd4)" d="M 76.315625 496.44 
L 969.115625 496.44 
" style="fill:none;stroke:#cccccc;stroke-linecap:round;"/>
     </g>
     <g id="text_12">
      <!-- 0 -->
      <g style="fill:#262626;" transform="translate(55.69375 503.597812)scale(0.2 -0.2)">
       <defs>
        <path d="M 1756 4600 
Q 2422 4600 2797 4125 
Q 3244 3563 3244 2259 
Q 3244 959 2794 391 
Q 2422 -78 1756 -78 
Q 1088 -78 678 436 
Q 269 950 269 2269 
Q 269 3563 719 4131 
Q 1091 4600 1756 4600 
z
M 1756 3872 
Q 1597 3872 1472 3770 
Q 1347 3669 1278 3406 
Q 1188 3066 1188 2259 
Q 1188 1453 1269 1151 
Q 1350 850 1473 750 
Q 1597 650 1756 650 
Q 1916 650 2041 751 
Q 2166 853 2234 1116 
Q 2325 1453 2325 2259 
Q 2325 3066 2244 3367 
Q 2163 3669 2039 3770 
Q 1916 3872 1756 3872 
z
" id="Arial-BoldMT-30" transform="scale(0.015625)"/>
       </defs>
       <use xlink:href="#Arial-BoldMT-30"/>
      </g>
     </g>
    </g>
    <g id="ytick_2">
     <g id="line2d_2">
      <path clip-path="url(#p339754afd4)" d="M 76.315625 431.500229 
L 969.115625 431.500229 
" style="fill:none;stroke:#cccccc;stroke-linecap:round;"/>
     </g>
     <g id="text_13">
      <!-- 200 -->
      <g style="fill:#262626;" transform="translate(33.45 438.658041)scale(0.2 -0.2)">
       <defs>
        <path d="M 3238 816 
L 3238 0 
L 159 0 
Q 209 463 459 877 
Q 709 1291 1447 1975 
Q 2041 2528 2175 2725 
Q 2356 2997 2356 3263 
Q 2356 3556 2198 3714 
Q 2041 3872 1763 3872 
Q 1488 3872 1325 3706 
Q 1163 3541 1138 3156 
L 263 3244 
Q 341 3969 753 4284 
Q 1166 4600 1784 4600 
Q 2463 4600 2850 4234 
Q 3238 3869 3238 3325 
Q 3238 3016 3127 2736 
Q 3016 2456 2775 2150 
Q 2616 1947 2200 1565 
Q 1784 1184 1673 1059 
Q 1563 934 1494 816 
L 3238 816 
z
" id="Arial-BoldMT-32" transform="scale(0.015625)"/>
       </defs>
       <use xlink:href="#Arial-BoldMT-32"/>
       <use x="55.615234" xlink:href="#Arial-BoldMT-30"/>
       <use x="111.230469" xlink:href="#Arial-BoldMT-30"/>
      </g>
     </g>
    </g>
    <g id="ytick_3">
     <g id="line2d_3">
      <path clip-path="url(#p339754afd4)" d="M 76.315625 366.560458 
L 969.115625 366.560458 
" style="fill:none;stroke:#cccccc;stroke-linecap:round;"/>
     </g>
     <g id="text_14">
      <!-- 400 -->
      <g style="fill:#262626;" transform="translate(33.45 373.71827)scale(0.2 -0.2)">
       <defs>
        <path d="M 1994 0 
L 1994 922 
L 119 922 
L 119 1691 
L 2106 4600 
L 2844 4600 
L 2844 1694 
L 3413 1694 
L 3413 922 
L 2844 922 
L 2844 0 
L 1994 0 
z
M 1994 1694 
L 1994 3259 
L 941 1694 
L 1994 1694 
z
" id="Arial-BoldMT-34" transform="scale(0.015625)"/>
       </defs>
       <use xlink:href="#Arial-BoldMT-34"/>
       <use x="55.615234" xlink:href="#Arial-BoldMT-30"/>
       <use x="111.230469" xlink:href="#Arial-BoldMT-30"/>
      </g>
     </g>
    </g>
    <g id="ytick_4">
     <g id="line2d_4">
      <path clip-path="url(#p339754afd4)" d="M 76.315625 301.620687 
L 969.115625 301.620687 
" style="fill:none;stroke:#cccccc;stroke-linecap:round;"/>
     </g>
     <g id="text_15">
      <!-- 600 -->
      <g style="fill:#262626;" transform="translate(33.45 308.778499)scale(0.2 -0.2)">
       <defs>
        <path d="M 3247 3459 
L 2397 3366 
Q 2366 3628 2234 3753 
Q 2103 3878 1894 3878 
Q 1616 3878 1423 3628 
Q 1231 3378 1181 2588 
Q 1509 2975 1997 2975 
Q 2547 2975 2939 2556 
Q 3331 2138 3331 1475 
Q 3331 772 2918 347 
Q 2506 -78 1859 -78 
Q 1166 -78 719 461 
Q 272 1000 272 2228 
Q 272 3488 737 4044 
Q 1203 4600 1947 4600 
Q 2469 4600 2811 4308 
Q 3153 4016 3247 3459 
z
M 1256 1544 
Q 1256 1116 1453 883 
Q 1650 650 1903 650 
Q 2147 650 2309 840 
Q 2472 1031 2472 1466 
Q 2472 1913 2297 2120 
Q 2122 2328 1859 2328 
Q 1606 2328 1431 2129 
Q 1256 1931 1256 1544 
z
" id="Arial-BoldMT-36" transform="scale(0.015625)"/>
       </defs>
       <use xlink:href="#Arial-BoldMT-36"/>
       <use x="55.615234" xlink:href="#Arial-BoldMT-30"/>
       <use x="111.230469" xlink:href="#Arial-BoldMT-30"/>
      </g>
     </g>
    </g>
    <g id="ytick_5">
     <g id="line2d_5">
      <path clip-path="url(#p339754afd4)" d="M 76.315625 236.680916 
L 969.115625 236.680916 
" style="fill:none;stroke:#cccccc;stroke-linecap:round;"/>
     </g>
     <g id="text_16">
      <!-- 800 -->
      <g style="fill:#262626;" transform="translate(33.45 243.838728)scale(0.2 -0.2)">
       <defs>
        <path d="M 1025 2472 
Q 684 2616 529 2867 
Q 375 3119 375 3419 
Q 375 3931 733 4265 
Q 1091 4600 1750 4600 
Q 2403 4600 2764 4265 
Q 3125 3931 3125 3419 
Q 3125 3100 2959 2851 
Q 2794 2603 2494 2472 
Q 2875 2319 3073 2025 
Q 3272 1731 3272 1347 
Q 3272 713 2867 316 
Q 2463 -81 1791 -81 
Q 1166 -81 750 247 
Q 259 634 259 1309 
Q 259 1681 443 1992 
Q 628 2303 1025 2472 
z
M 1206 3356 
Q 1206 3094 1354 2947 
Q 1503 2800 1750 2800 
Q 2000 2800 2150 2948 
Q 2300 3097 2300 3359 
Q 2300 3606 2151 3754 
Q 2003 3903 1759 3903 
Q 1506 3903 1356 3753 
Q 1206 3603 1206 3356 
z
M 1125 1394 
Q 1125 1031 1311 828 
Q 1497 625 1775 625 
Q 2047 625 2225 820 
Q 2403 1016 2403 1384 
Q 2403 1706 2222 1901 
Q 2041 2097 1763 2097 
Q 1441 2097 1283 1875 
Q 1125 1653 1125 1394 
z
" id="Arial-BoldMT-38" transform="scale(0.015625)"/>
       </defs>
       <use xlink:href="#Arial-BoldMT-38"/>
       <use x="55.615234" xlink:href="#Arial-BoldMT-30"/>
       <use x="111.230469" xlink:href="#Arial-BoldMT-30"/>
      </g>
     </g>
    </g>
    <g id="ytick_6">
     <g id="line2d_6">
      <path clip-path="url(#p339754afd4)" d="M 76.315625 171.741145 
L 969.115625 171.741145 
" style="fill:none;stroke:#cccccc;stroke-linecap:round;"/>
     </g>
     <g id="text_17">
      <!-- 1000 -->
      <g style="fill:#262626;" transform="translate(22.328125 178.898957)scale(0.2 -0.2)">
       <defs>
        <path d="M 2519 0 
L 1641 0 
L 1641 3309 
Q 1159 2859 506 2644 
L 506 3441 
Q 850 3553 1253 3867 
Q 1656 4181 1806 4600 
L 2519 4600 
L 2519 0 
z
" id="Arial-BoldMT-31" transform="scale(0.015625)"/>
       </defs>
       <use xlink:href="#Arial-BoldMT-31"/>
       <use x="55.615234" xlink:href="#Arial-BoldMT-30"/>
       <use x="111.230469" xlink:href="#Arial-BoldMT-30"/>
       <use x="166.845703" xlink:href="#Arial-BoldMT-30"/>
      </g>
     </g>
    </g>
    <g id="ytick_7">
     <g id="line2d_7">
      <path clip-path="url(#p339754afd4)" d="M 76.315625 106.801374 
L 969.115625 106.801374 
" style="fill:none;stroke:#cccccc;stroke-linecap:round;"/>
     </g>
     <g id="text_18">
      <!-- 1200 -->
      <g style="fill:#262626;" transform="translate(22.328125 113.959186)scale(0.2 -0.2)">
       <use xlink:href="#Arial-BoldMT-31"/>
       <use x="55.615234" xlink:href="#Arial-BoldMT-32"/>
       <use x="111.230469" xlink:href="#Arial-BoldMT-30"/>
       <use x="166.845703" xlink:href="#Arial-BoldMT-30"/>
      </g>
     </g>
    </g>
    <g id="ytick_8">
     <g id="line2d_8">
      <path clip-path="url(#p339754afd4)" d="M 76.315625 41.861603 
L 969.115625 41.861603 
" style="fill:none;stroke:#cccccc;stroke-linecap:round;"/>
     </g>
     <g id="text_19">
      <!-- 1400 -->
      <g style="fill:#262626;" transform="translate(22.328125 49.019415)scale(0.2 -0.2)">
       <use xlink:href="#Arial-BoldMT-31"/>
       <use x="55.615234" xlink:href="#Arial-BoldMT-34"/>
       <use x="111.230469" xlink:href="#Arial-BoldMT-30"/>
       <use x="166.845703" xlink:href="#Arial-BoldMT-30"/>
      </g>
     </g>
    </g>
    <g id="text_20">
     <!-- READY_TO_MOVE -->
     <g style="fill:#262626;" transform="translate(15.943125 305.061562)rotate(-90)scale(0.12 -0.12)">
      <defs>
       <path d="M 494 0 
L 494 4581 
L 2072 4581 
Q 2606 4581 2888 4516 
Q 3281 4425 3559 4188 
Q 3922 3881 4101 3404 
Q 4281 2928 4281 2316 
Q 4281 1794 4159 1391 
Q 4038 988 3847 723 
Q 3656 459 3429 307 
Q 3203 156 2883 78 
Q 2563 0 2147 0 
L 494 0 
z
M 1100 541 
L 2078 541 
Q 2531 541 2789 625 
Q 3047 709 3200 863 
Q 3416 1078 3536 1442 
Q 3656 1806 3656 2325 
Q 3656 3044 3420 3430 
Q 3184 3816 2847 3947 
Q 2603 4041 2063 4041 
L 1100 4041 
L 1100 541 
z
" id="ArialMT-44" transform="scale(0.015625)"/>
       <path d="M 475 0 
L 475 4581 
L 1388 4581 
L 2472 1338 
Q 2622 884 2691 659 
Q 2769 909 2934 1394 
L 4031 4581 
L 4847 4581 
L 4847 0 
L 4263 0 
L 4263 3834 
L 2931 0 
L 2384 0 
L 1059 3900 
L 1059 0 
L 475 0 
z
" id="ArialMT-4d" transform="scale(0.015625)"/>
       <path d="M 1803 0 
L 28 4581 
L 684 4581 
L 1875 1253 
Q 2019 853 2116 503 
Q 2222 878 2363 1253 
L 3600 4581 
L 4219 4581 
L 2425 0 
L 1803 0 
z
" id="ArialMT-56" transform="scale(0.015625)"/>
      </defs>
      <use xlink:href="#ArialMT-52"/>
      <use x="72.216797" xlink:href="#ArialMT-45"/>
      <use x="138.916016" xlink:href="#ArialMT-41"/>
      <use x="205.615234" xlink:href="#ArialMT-44"/>
      <use x="277.832031" xlink:href="#ArialMT-59"/>
      <use x="344.53125" xlink:href="#ArialMT-5f"/>
      <use x="400.146484" xlink:href="#ArialMT-54"/>
      <use x="459.480469" xlink:href="#ArialMT-4f"/>
      <use x="537.263672" xlink:href="#ArialMT-5f"/>
      <use x="592.878906" xlink:href="#ArialMT-4d"/>
      <use x="676.179688" xlink:href="#ArialMT-4f"/>
      <use x="753.962891" xlink:href="#ArialMT-56"/>
      <use x="820.662109" xlink:href="#ArialMT-45"/>
     </g>
    </g>
   </g>
   <g id="patch_3">
    <path clip-path="url(#p339754afd4)" d="M 85.243625 496.44 
L 156.667625 496.44 
L 156.667625 472.736984 
L 85.243625 472.736984 
z
" style="fill:#5875a4;stroke:#ffffff;stroke-linejoin:miter;"/>
   </g>
   <g id="patch_4">
    <path clip-path="url(#p339754afd4)" d="M 174.523625 496.44 
L 245.947625 496.44 
L 245.947625 147.71343 
L 174.523625 147.71343 
z
" style="fill:#cc8963;stroke:#ffffff;stroke-linejoin:miter;"/>
   </g>
   <g id="patch_5">
    <path clip-path="url(#p339754afd4)" d="M 263.803625 496.44 
L 335.227625 496.44 
L 335.227625 455.852643 
L 263.803625 455.852643 
z
" style="fill:#5f9e6e;stroke:#ffffff;stroke-linejoin:miter;"/>
   </g>
   <g id="patch_6">
    <path clip-path="url(#p339754afd4)" d="M 353.083625 496.44 
L 424.507625 496.44 
L 424.507625 217.198985 
L 353.083625 217.198985 
z
" style="fill:#b55d60;stroke:#ffffff;stroke-linejoin:miter;"/>
   </g>
   <g id="patch_7">
    <path clip-path="url(#p339754afd4)" d="M 442.363625 496.44 
L 513.787625 496.44 
L 513.787625 432.799024 
L 442.363625 432.799024 
z
" style="fill:#857aab;stroke:#ffffff;stroke-linejoin:miter;"/>
   </g>
   <g id="patch_8">
    <path clip-path="url(#p339754afd4)" d="M 531.643625 496.44 
L 603.067625 496.44 
L 603.067625 35.042927 
L 531.643625 35.042927 
z
" style="fill:#8d7866;stroke:#ffffff;stroke-linejoin:miter;"/>
   </g>
   <g id="patch_9">
    <path clip-path="url(#p339754afd4)" d="M 620.923625 496.44 
L 692.347625 496.44 
L 692.347625 30.497143 
L 620.923625 30.497143 
z
" style="fill:#d095bf;stroke:#ffffff;stroke-linejoin:miter;"/>
   </g>
   <g id="patch_10">
    <path clip-path="url(#p339754afd4)" d="M 710.203625 496.44 
L 781.627625 496.44 
L 781.627625 410.070105 
L 710.203625 410.070105 
z
" style="fill:#8c8c8c;stroke:#ffffff;stroke-linejoin:miter;"/>
   </g>
   <g id="patch_11">
    <path clip-path="url(#p339754afd4)" d="M 799.483625 496.44 
L 870.907625 496.44 
L 870.907625 467.541802 
L 799.483625 467.541802 
z
" style="fill:#c1b37f;stroke:#ffffff;stroke-linejoin:miter;"/>
   </g>
   <g id="patch_12">
    <path clip-path="url(#p339754afd4)" d="M 888.763625 496.44 
L 960.187625 496.44 
L 960.187625 475.334574 
L 888.763625 475.334574 
z
" style="fill:#71aec0;stroke:#ffffff;stroke-linejoin:miter;"/>
   </g>
   <g id="line2d_9">
    <path clip-path="url(#p339754afd4)" style="fill:none;stroke:#424242;stroke-linecap:round;stroke-width:2.7;"/>
   </g>
   <g id="line2d_10">
    <path clip-path="url(#p339754afd4)" style="fill:none;stroke:#424242;stroke-linecap:round;stroke-width:2.7;"/>
   </g>
   <g id="line2d_11">
    <path clip-path="url(#p339754afd4)" style="fill:none;stroke:#424242;stroke-linecap:round;stroke-width:2.7;"/>
   </g>
   <g id="line2d_12">
    <path clip-path="url(#p339754afd4)" style="fill:none;stroke:#424242;stroke-linecap:round;stroke-width:2.7;"/>
   </g>
   <g id="line2d_13">
    <path clip-path="url(#p339754afd4)" style="fill:none;stroke:#424242;stroke-linecap:round;stroke-width:2.7;"/>
   </g>
   <g id="line2d_14">
    <path clip-path="url(#p339754afd4)" style="fill:none;stroke:#424242;stroke-linecap:round;stroke-width:2.7;"/>
   </g>
   <g id="line2d_15">
    <path clip-path="url(#p339754afd4)" style="fill:none;stroke:#424242;stroke-linecap:round;stroke-width:2.7;"/>
   </g>
   <g id="line2d_16">
    <path clip-path="url(#p339754afd4)" style="fill:none;stroke:#424242;stroke-linecap:round;stroke-width:2.7;"/>
   </g>
   <g id="line2d_17">
    <path clip-path="url(#p339754afd4)" style="fill:none;stroke:#424242;stroke-linecap:round;stroke-width:2.7;"/>
   </g>
   <g id="line2d_18">
    <path clip-path="url(#p339754afd4)" style="fill:none;stroke:#424242;stroke-linecap:round;stroke-width:2.7;"/>
   </g>
   <g id="patch_13">
    <path d="M 76.315625 496.44 
L 76.315625 7.2 
" style="fill:none;stroke:#cccccc;stroke-linecap:square;stroke-linejoin:miter;stroke-width:1.25;"/>
   </g>
   <g id="patch_14">
    <path d="M 969.115625 496.44 
L 969.115625 7.2 
" style="fill:none;stroke:#cccccc;stroke-linecap:square;stroke-linejoin:miter;stroke-width:1.25;"/>
   </g>
   <g id="patch_15">
    <path d="M 76.315625 496.44 
L 969.115625 496.44 
" style="fill:none;stroke:#cccccc;stroke-linecap:square;stroke-linejoin:miter;stroke-width:1.25;"/>
   </g>
   <g id="patch_16">
    <path d="M 76.315625 7.2 
L 969.115625 7.2 
" style="fill:none;stroke:#cccccc;stroke-linecap:square;stroke-linejoin:miter;stroke-width:1.25;"/>
   </g>
  </g>
 </g>
 <defs>
  <clipPath id="p339754afd4">
   <rect height="489.24" width="892.8" x="76.315625" y="7.2"/>
  </clipPath>
 </defs>
</svg>
