<?xml version="1.0" encoding="utf-8" standalone="no"?>
<!DOCTYPE svg PUBLIC "-//W3C//DTD SVG 1.1//EN"
  "http://www.w3.org/Graphics/SVG/1.1/DTD/svg11.dtd">
<svg height="523.323594pt" version="1.1" viewBox="0 0 941.168125 523.323594" width="941.168125pt" xmlns="http://www.w3.org/2000/svg" xmlns:xlink="http://www.w3.org/1999/xlink">
 <metadata>
  <rdf:RDF xmlns:cc="http://creativecommons.org/ns#" xmlns:dc="http://purl.org/dc/elements/1.1/" xmlns:rdf="http://www.w3.org/1999/02/22-rdf-syntax-ns#">
   <cc:Work>
    <dc:type rdf:resource="http://purl.org/dc/dcmitype/StillImage"/>
    <dc:date>2021-08-24T18:35:58.044778</dc:date>
    <dc:format>image/svg+xml</dc:format>
    <dc:creator>
     <cc:Agent>
      <dc:title>Matplotlib v3.4.2, https://matplotlib.org/</dc:title>
     </cc:Agent>
    </dc:creator>
   </cc:Work>
  </rdf:RDF>
 </metadata>
 <defs>
  <style type="text/css">*{stroke-linecap:butt;stroke-linejoin:round;}</style>
 </defs>
 <g id="figure_1">
  <g id="patch_1">
   <path d="M 0 523.323594 
L 941.168125 523.323594 
L 941.168125 0 
L 0 0 
z
" style="fill:#ffffff;"/>
  </g>
  <g id="axes_1">
   <g id="patch_2">
    <path d="M 41.168125 496.44 
L 933.968125 496.44 
L 933.968125 7.2 
L 41.168125 7.2 
z
" style="fill:#ffffff;"/>
   </g>
   <g id="matplotlib.axis_1">
    <g id="xtick_1">
     <g id="text_1">
      <!-- POSTED_BY -->
      <g style="fill:#262626;" transform="translate(63.653594 513.947656)scale(0.11 -0.11)">
       <defs>
        <path d="M 466 0 
L 466 4581 
L 1950 4581 
Q 2794 4581 3050 4513 
Q 3444 4409 3709 4064 
Q 3975 3719 3975 3172 
Q 3975 2750 3822 2462 
Q 3669 2175 3433 2011 
Q 3197 1847 2953 1794 
Q 2622 1728 1994 1728 
L 1391 1728 
L 1391 0 
L 466 0 
z
M 1391 3806 
L 1391 2506 
L 1897 2506 
Q 2444 2506 2628 2578 
Q 2813 2650 2917 2803 
Q 3022 2956 3022 3159 
Q 3022 3409 2875 3571 
Q 2728 3734 2503 3775 
Q 2338 3806 1838 3806 
L 1391 3806 
z
" id="Arial-BoldMT-50" transform="scale(0.015625)"/>
        <path d="M 278 2263 
Q 278 2963 488 3438 
Q 644 3788 914 4066 
Q 1184 4344 1506 4478 
Q 1934 4659 2494 4659 
Q 3506 4659 4114 4031 
Q 4722 3403 4722 2284 
Q 4722 1175 4119 548 
Q 3516 -78 2506 -78 
Q 1484 -78 881 545 
Q 278 1169 278 2263 
z
M 1231 2294 
Q 1231 1516 1590 1114 
Q 1950 713 2503 713 
Q 3056 713 3411 1111 
Q 3766 1509 3766 2306 
Q 3766 3094 3420 3481 
Q 3075 3869 2503 3869 
Q 1931 3869 1581 3476 
Q 1231 3084 1231 2294 
z
" id="Arial-BoldMT-4f" transform="scale(0.015625)"/>
        <path d="M 231 1491 
L 1131 1578 
Q 1213 1125 1461 912 
Q 1709 700 2131 700 
Q 2578 700 2804 889 
Q 3031 1078 3031 1331 
Q 3031 1494 2936 1608 
Q 2841 1722 2603 1806 
Q 2441 1863 1863 2006 
Q 1119 2191 819 2459 
Q 397 2838 397 3381 
Q 397 3731 595 4036 
Q 794 4341 1167 4500 
Q 1541 4659 2069 4659 
Q 2931 4659 3367 4281 
Q 3803 3903 3825 3272 
L 2900 3231 
Q 2841 3584 2645 3739 
Q 2450 3894 2059 3894 
Q 1656 3894 1428 3728 
Q 1281 3622 1281 3444 
Q 1281 3281 1419 3166 
Q 1594 3019 2269 2859 
Q 2944 2700 3267 2529 
Q 3591 2359 3773 2064 
Q 3956 1769 3956 1334 
Q 3956 941 3737 597 
Q 3519 253 3119 86 
Q 2719 -81 2122 -81 
Q 1253 -81 787 320 
Q 322 722 231 1491 
z
" id="Arial-BoldMT-53" transform="scale(0.015625)"/>
        <path d="M 1497 0 
L 1497 3806 
L 138 3806 
L 138 4581 
L 3778 4581 
L 3778 3806 
L 2422 3806 
L 2422 0 
L 1497 0 
z
" id="Arial-BoldMT-54" transform="scale(0.015625)"/>
        <path d="M 466 0 
L 466 4581 
L 3863 4581 
L 3863 3806 
L 1391 3806 
L 1391 2791 
L 3691 2791 
L 3691 2019 
L 1391 2019 
L 1391 772 
L 3950 772 
L 3950 0 
L 466 0 
z
" id="Arial-BoldMT-45" transform="scale(0.015625)"/>
        <path d="M 463 4581 
L 2153 4581 
Q 2725 4581 3025 4494 
Q 3428 4375 3715 4072 
Q 4003 3769 4153 3330 
Q 4303 2891 4303 2247 
Q 4303 1681 4163 1272 
Q 3991 772 3672 463 
Q 3431 228 3022 97 
Q 2716 0 2203 0 
L 463 0 
L 463 4581 
z
M 1388 3806 
L 1388 772 
L 2078 772 
Q 2466 772 2638 816 
Q 2863 872 3011 1006 
Q 3159 1141 3253 1448 
Q 3347 1756 3347 2288 
Q 3347 2819 3253 3103 
Q 3159 3388 2990 3547 
Q 2822 3706 2563 3763 
Q 2369 3806 1803 3806 
L 1388 3806 
z
" id="Arial-BoldMT-44" transform="scale(0.015625)"/>
        <path d="M -59 -1266 
L -59 -697 
L 3591 -697 
L 3591 -1266 
L -59 -1266 
z
" id="Arial-BoldMT-5f" transform="scale(0.015625)"/>
        <path d="M 469 4581 
L 2300 4581 
Q 2844 4581 3111 4536 
Q 3378 4491 3589 4347 
Q 3800 4203 3940 3964 
Q 4081 3725 4081 3428 
Q 4081 3106 3907 2837 
Q 3734 2569 3438 2434 
Q 3856 2313 4081 2019 
Q 4306 1725 4306 1328 
Q 4306 1016 4161 720 
Q 4016 425 3764 248 
Q 3513 72 3144 31 
Q 2913 6 2028 0 
L 469 0 
L 469 4581 
z
M 1394 3819 
L 1394 2759 
L 2000 2759 
Q 2541 2759 2672 2775 
Q 2909 2803 3045 2939 
Q 3181 3075 3181 3297 
Q 3181 3509 3064 3642 
Q 2947 3775 2716 3803 
Q 2578 3819 1925 3819 
L 1394 3819 
z
M 1394 1997 
L 1394 772 
L 2250 772 
Q 2750 772 2884 800 
Q 3091 838 3220 983 
Q 3350 1128 3350 1372 
Q 3350 1578 3250 1722 
Q 3150 1866 2961 1931 
Q 2772 1997 2141 1997 
L 1394 1997 
z
" id="Arial-BoldMT-42" transform="scale(0.015625)"/>
        <path d="M 1669 0 
L 1669 1928 
L -9 4581 
L 1075 4581 
L 2153 2769 
L 3209 4581 
L 4275 4581 
L 2591 1922 
L 2591 0 
L 1669 0 
z
" id="Arial-BoldMT-59" transform="scale(0.015625)"/>
       </defs>
       <use xlink:href="#Arial-BoldMT-50"/>
       <use x="66.699219" xlink:href="#Arial-BoldMT-4f"/>
       <use x="144.482422" xlink:href="#Arial-BoldMT-53"/>
       <use x="211.181641" xlink:href="#Arial-BoldMT-54"/>
       <use x="272.265625" xlink:href="#Arial-BoldMT-45"/>
       <use x="338.964844" xlink:href="#Arial-BoldMT-44"/>
       <use x="411.181641" xlink:href="#Arial-BoldMT-5f"/>
       <use x="466.796875" xlink:href="#Arial-BoldMT-42"/>
       <use x="539.013672" xlink:href="#Arial-BoldMT-59"/>
      </g>
     </g>
    </g>
    <g id="xtick_2">
     <g id="text_2">
      <!-- UNDER_CONSTRUCTION -->
      <g style="fill:#262626;" transform="translate(141.649453 513.947656)scale(0.11 -0.11)">
       <defs>
        <path d="M 459 4581 
L 1384 4581 
L 1384 2100 
Q 1384 1509 1419 1334 
Q 1478 1053 1701 883 
Q 1925 713 2313 713 
Q 2706 713 2906 873 
Q 3106 1034 3147 1268 
Q 3188 1503 3188 2047 
L 3188 4581 
L 4113 4581 
L 4113 2175 
Q 4113 1350 4038 1009 
Q 3963 669 3761 434 
Q 3559 200 3221 61 
Q 2884 -78 2341 -78 
Q 1684 -78 1345 73 
Q 1006 225 809 467 
Q 613 709 550 975 
Q 459 1369 459 2138 
L 459 4581 
z
" id="Arial-BoldMT-55" transform="scale(0.015625)"/>
        <path d="M 475 0 
L 475 4581 
L 1375 4581 
L 3250 1522 
L 3250 4581 
L 4109 4581 
L 4109 0 
L 3181 0 
L 1334 2988 
L 1334 0 
L 475 0 
z
" id="Arial-BoldMT-4e" transform="scale(0.015625)"/>
        <path d="M 469 0 
L 469 4581 
L 2416 4581 
Q 3150 4581 3483 4457 
Q 3816 4334 4016 4018 
Q 4216 3703 4216 3297 
Q 4216 2781 3912 2445 
Q 3609 2109 3006 2022 
Q 3306 1847 3501 1637 
Q 3697 1428 4028 894 
L 4588 0 
L 3481 0 
L 2813 997 
Q 2456 1531 2325 1670 
Q 2194 1809 2047 1861 
Q 1900 1913 1581 1913 
L 1394 1913 
L 1394 0 
L 469 0 
z
M 1394 2644 
L 2078 2644 
Q 2744 2644 2909 2700 
Q 3075 2756 3169 2893 
Q 3263 3031 3263 3238 
Q 3263 3469 3139 3611 
Q 3016 3753 2791 3791 
Q 2678 3806 2116 3806 
L 1394 3806 
L 1394 2644 
z
" id="Arial-BoldMT-52" transform="scale(0.015625)"/>
        <path d="M 3397 1684 
L 4294 1400 
Q 4088 650 3608 286 
Q 3128 -78 2391 -78 
Q 1478 -78 890 545 
Q 303 1169 303 2250 
Q 303 3394 893 4026 
Q 1484 4659 2447 4659 
Q 3288 4659 3813 4163 
Q 4125 3869 4281 3319 
L 3366 3100 
Q 3284 3456 3026 3662 
Q 2769 3869 2400 3869 
Q 1891 3869 1573 3503 
Q 1256 3138 1256 2319 
Q 1256 1450 1568 1081 
Q 1881 713 2381 713 
Q 2750 713 3015 947 
Q 3281 1181 3397 1684 
z
" id="Arial-BoldMT-43" transform="scale(0.015625)"/>
        <path d="M 438 0 
L 438 4581 
L 1363 4581 
L 1363 0 
L 438 0 
z
" id="Arial-BoldMT-49" transform="scale(0.015625)"/>
       </defs>
       <use xlink:href="#Arial-BoldMT-55"/>
       <use x="72.216797" xlink:href="#Arial-BoldMT-4e"/>
       <use x="144.433594" xlink:href="#Arial-BoldMT-44"/>
       <use x="216.650391" xlink:href="#Arial-BoldMT-45"/>
       <use x="283.349609" xlink:href="#Arial-BoldMT-52"/>
       <use x="355.566406" xlink:href="#Arial-BoldMT-5f"/>
       <use x="411.181641" xlink:href="#Arial-BoldMT-43"/>
       <use x="483.398438" xlink:href="#Arial-BoldMT-4f"/>
       <use x="561.181641" xlink:href="#Arial-BoldMT-4e"/>
       <use x="633.398438" xlink:href="#Arial-BoldMT-53"/>
       <use x="700.097656" xlink:href="#Arial-BoldMT-54"/>
       <use x="761.181641" xlink:href="#Arial-BoldMT-52"/>
       <use x="833.398438" xlink:href="#Arial-BoldMT-55"/>
       <use x="905.615234" xlink:href="#Arial-BoldMT-43"/>
       <use x="977.832031" xlink:href="#Arial-BoldMT-54"/>
       <use x="1038.916016" xlink:href="#Arial-BoldMT-49"/>
       <use x="1066.699219" xlink:href="#Arial-BoldMT-4f"/>
       <use x="1144.482422" xlink:href="#Arial-BoldMT-4e"/>
      </g>
     </g>
    </g>
    <g id="xtick_3">
     <g id="text_3">
      <!-- RERA -->
      <g style="fill:#262626;" transform="translate(304.583359 513.813594)scale(0.11 -0.11)">
       <defs>
        <path d="M 4597 0 
L 3591 0 
L 3191 1041 
L 1359 1041 
L 981 0 
L 0 0 
L 1784 4581 
L 2763 4581 
L 4597 0 
z
M 2894 1813 
L 2263 3513 
L 1644 1813 
L 2894 1813 
z
" id="Arial-BoldMT-41" transform="scale(0.015625)"/>
       </defs>
       <use xlink:href="#Arial-BoldMT-52"/>
       <use x="72.216797" xlink:href="#Arial-BoldMT-45"/>
       <use x="138.916016" xlink:href="#Arial-BoldMT-52"/>
       <use x="211.132812" xlink:href="#Arial-BoldMT-41"/>
      </g>
     </g>
    </g>
    <g id="xtick_4">
     <g id="text_4">
      <!-- BHK_NO -->
      <g style="fill:#262626;" transform="translate(408.543516 513.947656)scale(0.11 -0.11)">
       <defs>
        <path d="M 469 0 
L 469 4581 
L 1394 4581 
L 1394 2778 
L 3206 2778 
L 3206 4581 
L 4131 4581 
L 4131 0 
L 3206 0 
L 3206 2003 
L 1394 2003 
L 1394 0 
L 469 0 
z
" id="Arial-BoldMT-48" transform="scale(0.015625)"/>
        <path d="M 478 0 
L 478 4581 
L 1403 4581 
L 1403 2547 
L 3272 4581 
L 4516 4581 
L 2791 2797 
L 4609 0 
L 3413 0 
L 2153 2150 
L 1403 1384 
L 1403 0 
L 478 0 
z
" id="Arial-BoldMT-4b" transform="scale(0.015625)"/>
       </defs>
       <use xlink:href="#Arial-BoldMT-42"/>
       <use x="72.216797" xlink:href="#Arial-BoldMT-48"/>
       <use x="144.433594" xlink:href="#Arial-BoldMT-4b"/>
       <use x="216.650391" xlink:href="#Arial-BoldMT-5f"/>
       <use x="272.265625" xlink:href="#Arial-BoldMT-4e"/>
       <use x="344.482422" xlink:href="#Arial-BoldMT-4f"/>
      </g>
     </g>
    </g>
    <g id="xtick_5">
     <g id="text_5">
      <!-- BHK_OR_RK -->
      <g style="fill:#262626;" transform="translate(509.140937 513.947656)scale(0.11 -0.11)">
       <use xlink:href="#Arial-BoldMT-42"/>
       <use x="72.216797" xlink:href="#Arial-BoldMT-48"/>
       <use x="144.433594" xlink:href="#Arial-BoldMT-4b"/>
       <use x="216.650391" xlink:href="#Arial-BoldMT-5f"/>
       <use x="272.265625" xlink:href="#Arial-BoldMT-4f"/>
       <use x="350.048828" xlink:href="#Arial-BoldMT-52"/>
       <use x="422.265625" xlink:href="#Arial-BoldMT-5f"/>
       <use x="477.880859" xlink:href="#Arial-BoldMT-52"/>
       <use x="550.097656" xlink:href="#Arial-BoldMT-4b"/>
      </g>
     </g>
    </g>
    <g id="xtick_6">
     <g id="text_6">
      <!-- SQUARE_FT -->
      <g style="fill:#262626;" transform="translate(621.659609 513.947656)scale(0.11 -0.11)">
       <defs>
        <path d="M 4153 581 
Q 4494 338 4894 194 
L 4553 -459 
Q 4344 -397 4144 -288 
Q 4100 -266 3528 119 
Q 3078 -78 2531 -78 
Q 1475 -78 876 544 
Q 278 1166 278 2291 
Q 278 3413 878 4036 
Q 1478 4659 2506 4659 
Q 3525 4659 4122 4036 
Q 4719 3413 4719 2291 
Q 4719 1697 4553 1247 
Q 4428 903 4153 581 
z
M 3409 1103 
Q 3588 1313 3677 1609 
Q 3766 1906 3766 2291 
Q 3766 3084 3416 3476 
Q 3066 3869 2500 3869 
Q 1934 3869 1582 3475 
Q 1231 3081 1231 2291 
Q 1231 1488 1582 1089 
Q 1934 691 2472 691 
Q 2672 691 2850 756 
Q 2569 941 2278 1044 
L 2538 1572 
Q 2994 1416 3409 1103 
z
" id="Arial-BoldMT-51" transform="scale(0.015625)"/>
        <path d="M 472 0 
L 472 4581 
L 3613 4581 
L 3613 3806 
L 1397 3806 
L 1397 2722 
L 3309 2722 
L 3309 1947 
L 1397 1947 
L 1397 0 
L 472 0 
z
" id="Arial-BoldMT-46" transform="scale(0.015625)"/>
       </defs>
       <use xlink:href="#Arial-BoldMT-53"/>
       <use x="66.699219" xlink:href="#Arial-BoldMT-51"/>
       <use x="144.482422" xlink:href="#Arial-BoldMT-55"/>
       <use x="216.699219" xlink:href="#Arial-BoldMT-41"/>
       <use x="288.916016" xlink:href="#Arial-BoldMT-52"/>
       <use x="361.132812" xlink:href="#Arial-BoldMT-45"/>
       <use x="427.832031" xlink:href="#Arial-BoldMT-5f"/>
       <use x="483.447266" xlink:href="#Arial-BoldMT-46"/>
       <use x="544.53125" xlink:href="#Arial-BoldMT-54"/>
      </g>
     </g>
    </g>
    <g id="xtick_7">
     <g id="text_7">
      <!-- READY_TO_MOVE -->
      <g style="fill:#262626;" transform="translate(717.46 513.947656)scale(0.11 -0.11)">
       <defs>
        <path d="M 453 0 
L 453 4581 
L 1838 4581 
L 2669 1456 
L 3491 4581 
L 4878 4581 
L 4878 0 
L 4019 0 
L 4019 3606 
L 3109 0 
L 2219 0 
L 1313 3606 
L 1313 0 
L 453 0 
z
" id="Arial-BoldMT-4d" transform="scale(0.015625)"/>
        <path d="M 1634 0 
L -3 4581 
L 1000 4581 
L 2159 1191 
L 3281 4581 
L 4263 4581 
L 2622 0 
L 1634 0 
z
" id="Arial-BoldMT-56" transform="scale(0.015625)"/>
       </defs>
       <use xlink:href="#Arial-BoldMT-52"/>
       <use x="72.216797" xlink:href="#Arial-BoldMT-45"/>
       <use x="138.916016" xlink:href="#Arial-BoldMT-41"/>
       <use x="211.132812" xlink:href="#Arial-BoldMT-44"/>
       <use x="283.349609" xlink:href="#Arial-BoldMT-59"/>
       <use x="350.048828" xlink:href="#Arial-BoldMT-5f"/>
       <use x="405.664062" xlink:href="#Arial-BoldMT-54"/>
       <use x="464.998047" xlink:href="#Arial-BoldMT-4f"/>
       <use x="542.78125" xlink:href="#Arial-BoldMT-5f"/>
       <use x="598.396484" xlink:href="#Arial-BoldMT-4d"/>
       <use x="681.697266" xlink:href="#Arial-BoldMT-4f"/>
       <use x="759.480469" xlink:href="#Arial-BoldMT-56"/>
       <use x="826.179688" xlink:href="#Arial-BoldMT-45"/>
      </g>
     </g>
    </g>
    <g id="xtick_8">
     <g id="text_8">
      <!-- RESALE -->
      <g style="fill:#262626;" transform="translate(855.85875 513.813594)scale(0.11 -0.11)">
       <defs>
        <path d="M 491 0 
L 491 4544 
L 1416 4544 
L 1416 772 
L 3716 772 
L 3716 0 
L 491 0 
z
" id="Arial-BoldMT-4c" transform="scale(0.015625)"/>
       </defs>
       <use xlink:href="#Arial-BoldMT-52"/>
       <use x="72.216797" xlink:href="#Arial-BoldMT-45"/>
       <use x="138.916016" xlink:href="#Arial-BoldMT-53"/>
       <use x="205.615234" xlink:href="#Arial-BoldMT-41"/>
       <use x="277.832031" xlink:href="#Arial-BoldMT-4c"/>
       <use x="338.916016" xlink:href="#Arial-BoldMT-45"/>
      </g>
     </g>
    </g>
   </g>
   <g id="matplotlib.axis_2">
    <g id="ytick_1">
     <g id="line2d_1">
      <path clip-path="url(#p27abd2729b)" d="M 41.168125 496.44 
L 933.968125 496.44 
" style="fill:none;stroke:#cccccc;stroke-linecap:round;"/>
     </g>
     <g id="text_9">
      <!-- 0 -->
      <g style="fill:#262626;" transform="translate(25.551094 500.376797)scale(0.11 -0.11)">
       <defs>
        <path d="M 1756 4600 
Q 2422 4600 2797 4125 
Q 3244 3563 3244 2259 
Q 3244 959 2794 391 
Q 2422 -78 1756 -78 
Q 1088 -78 678 436 
Q 269 950 269 2269 
Q 269 3563 719 4131 
Q 1091 4600 1756 4600 
z
M 1756 3872 
Q 1597 3872 1472 3770 
Q 1347 3669 1278 3406 
Q 1188 3066 1188 2259 
Q 1188 1453 1269 1151 
Q 1350 850 1473 750 
Q 1597 650 1756 650 
Q 1916 650 2041 751 
Q 2166 853 2234 1116 
Q 2325 1453 2325 2259 
Q 2325 3066 2244 3367 
Q 2163 3669 2039 3770 
Q 1916 3872 1756 3872 
z
" id="Arial-BoldMT-30" transform="scale(0.015625)"/>
       </defs>
       <use xlink:href="#Arial-BoldMT-30"/>
      </g>
     </g>
    </g>
    <g id="ytick_2">
     <g id="line2d_2">
      <path clip-path="url(#p27abd2729b)" d="M 41.168125 441.68335 
L 933.968125 441.68335 
" style="fill:none;stroke:#cccccc;stroke-linecap:round;"/>
     </g>
     <g id="text_10">
      <!-- 500 -->
      <g style="fill:#262626;" transform="translate(13.317031 445.620147)scale(0.11 -0.11)">
       <defs>
        <path d="M 284 1178 
L 1159 1269 
Q 1197 972 1381 798 
Q 1566 625 1806 625 
Q 2081 625 2272 848 
Q 2463 1072 2463 1522 
Q 2463 1944 2273 2155 
Q 2084 2366 1781 2366 
Q 1403 2366 1103 2031 
L 391 2134 
L 841 4519 
L 3163 4519 
L 3163 3697 
L 1506 3697 
L 1369 2919 
Q 1663 3066 1969 3066 
Q 2553 3066 2959 2641 
Q 3366 2216 3366 1538 
Q 3366 972 3038 528 
Q 2591 -78 1797 -78 
Q 1163 -78 763 262 
Q 363 603 284 1178 
z
" id="Arial-BoldMT-35" transform="scale(0.015625)"/>
       </defs>
       <use xlink:href="#Arial-BoldMT-35"/>
       <use x="55.615234" xlink:href="#Arial-BoldMT-30"/>
       <use x="111.230469" xlink:href="#Arial-BoldMT-30"/>
      </g>
     </g>
    </g>
    <g id="ytick_3">
     <g id="line2d_3">
      <path clip-path="url(#p27abd2729b)" d="M 41.168125 386.9267 
L 933.968125 386.9267 
" style="fill:none;stroke:#cccccc;stroke-linecap:round;"/>
     </g>
     <g id="text_11">
      <!-- 1000 -->
      <g style="fill:#262626;" transform="translate(7.2 390.863497)scale(0.11 -0.11)">
       <defs>
        <path d="M 2519 0 
L 1641 0 
L 1641 3309 
Q 1159 2859 506 2644 
L 506 3441 
Q 850 3553 1253 3867 
Q 1656 4181 1806 4600 
L 2519 4600 
L 2519 0 
z
" id="Arial-BoldMT-31" transform="scale(0.015625)"/>
       </defs>
       <use xlink:href="#Arial-BoldMT-31"/>
       <use x="55.615234" xlink:href="#Arial-BoldMT-30"/>
       <use x="111.230469" xlink:href="#Arial-BoldMT-30"/>
       <use x="166.845703" xlink:href="#Arial-BoldMT-30"/>
      </g>
     </g>
    </g>
    <g id="ytick_4">
     <g id="line2d_4">
      <path clip-path="url(#p27abd2729b)" d="M 41.168125 332.17005 
L 933.968125 332.17005 
" style="fill:none;stroke:#cccccc;stroke-linecap:round;"/>
     </g>
     <g id="text_12">
      <!-- 1500 -->
      <g style="fill:#262626;" transform="translate(7.2 336.106846)scale(0.11 -0.11)">
       <use xlink:href="#Arial-BoldMT-31"/>
       <use x="55.615234" xlink:href="#Arial-BoldMT-35"/>
       <use x="111.230469" xlink:href="#Arial-BoldMT-30"/>
       <use x="166.845703" xlink:href="#Arial-BoldMT-30"/>
      </g>
     </g>
    </g>
    <g id="ytick_5">
     <g id="line2d_5">
      <path clip-path="url(#p27abd2729b)" d="M 41.168125 277.413399 
L 933.968125 277.413399 
" style="fill:none;stroke:#cccccc;stroke-linecap:round;"/>
     </g>
     <g id="text_13">
      <!-- 2000 -->
      <g style="fill:#262626;" transform="translate(7.2 281.350196)scale(0.11 -0.11)">
       <defs>
        <path d="M 3238 816 
L 3238 0 
L 159 0 
Q 209 463 459 877 
Q 709 1291 1447 1975 
Q 2041 2528 2175 2725 
Q 2356 2997 2356 3263 
Q 2356 3556 2198 3714 
Q 2041 3872 1763 3872 
Q 1488 3872 1325 3706 
Q 1163 3541 1138 3156 
L 263 3244 
Q 341 3969 753 4284 
Q 1166 4600 1784 4600 
Q 2463 4600 2850 4234 
Q 3238 3869 3238 3325 
Q 3238 3016 3127 2736 
Q 3016 2456 2775 2150 
Q 2616 1947 2200 1565 
Q 1784 1184 1673 1059 
Q 1563 934 1494 816 
L 3238 816 
z
" id="Arial-BoldMT-32" transform="scale(0.015625)"/>
       </defs>
       <use xlink:href="#Arial-BoldMT-32"/>
       <use x="55.615234" xlink:href="#Arial-BoldMT-30"/>
       <use x="111.230469" xlink:href="#Arial-BoldMT-30"/>
       <use x="166.845703" xlink:href="#Arial-BoldMT-30"/>
      </g>
     </g>
    </g>
    <g id="ytick_6">
     <g id="line2d_6">
      <path clip-path="url(#p27abd2729b)" d="M 41.168125 222.656749 
L 933.968125 222.656749 
" style="fill:none;stroke:#cccccc;stroke-linecap:round;"/>
     </g>
     <g id="text_14">
      <!-- 2500 -->
      <g style="fill:#262626;" transform="translate(7.2 226.593546)scale(0.11 -0.11)">
       <use xlink:href="#Arial-BoldMT-32"/>
       <use x="55.615234" xlink:href="#Arial-BoldMT-35"/>
       <use x="111.230469" xlink:href="#Arial-BoldMT-30"/>
       <use x="166.845703" xlink:href="#Arial-BoldMT-30"/>
      </g>
     </g>
    </g>
    <g id="ytick_7">
     <g id="line2d_7">
      <path clip-path="url(#p27abd2729b)" d="M 41.168125 167.900099 
L 933.968125 167.900099 
" style="fill:none;stroke:#cccccc;stroke-linecap:round;"/>
     </g>
     <g id="text_15">
      <!-- 3000 -->
      <g style="fill:#262626;" transform="translate(7.2 171.836896)scale(0.11 -0.11)">
       <defs>
        <path d="M 241 1216 
L 1091 1319 
Q 1131 994 1309 822 
Q 1488 650 1741 650 
Q 2013 650 2198 856 
Q 2384 1063 2384 1413 
Q 2384 1744 2206 1937 
Q 2028 2131 1772 2131 
Q 1603 2131 1369 2066 
L 1466 2781 
Q 1822 2772 2009 2936 
Q 2197 3100 2197 3372 
Q 2197 3603 2059 3740 
Q 1922 3878 1694 3878 
Q 1469 3878 1309 3722 
Q 1150 3566 1116 3266 
L 306 3403 
Q 391 3819 561 4067 
Q 731 4316 1036 4458 
Q 1341 4600 1719 4600 
Q 2366 4600 2756 4188 
Q 3078 3850 3078 3425 
Q 3078 2822 2419 2463 
Q 2813 2378 3048 2084 
Q 3284 1791 3284 1375 
Q 3284 772 2843 347 
Q 2403 -78 1747 -78 
Q 1125 -78 715 280 
Q 306 638 241 1216 
z
" id="Arial-BoldMT-33" transform="scale(0.015625)"/>
       </defs>
       <use xlink:href="#Arial-BoldMT-33"/>
       <use x="55.615234" xlink:href="#Arial-BoldMT-30"/>
       <use x="111.230469" xlink:href="#Arial-BoldMT-30"/>
       <use x="166.845703" xlink:href="#Arial-BoldMT-30"/>
      </g>
     </g>
    </g>
    <g id="ytick_8">
     <g id="line2d_8">
      <path clip-path="url(#p27abd2729b)" d="M 41.168125 113.143449 
L 933.968125 113.143449 
" style="fill:none;stroke:#cccccc;stroke-linecap:round;"/>
     </g>
     <g id="text_16">
      <!-- 3500 -->
      <g style="fill:#262626;" transform="translate(7.2 117.080246)scale(0.11 -0.11)">
       <use xlink:href="#Arial-BoldMT-33"/>
       <use x="55.615234" xlink:href="#Arial-BoldMT-35"/>
       <use x="111.230469" xlink:href="#Arial-BoldMT-30"/>
       <use x="166.845703" xlink:href="#Arial-BoldMT-30"/>
      </g>
     </g>
    </g>
    <g id="ytick_9">
     <g id="line2d_9">
      <path clip-path="url(#p27abd2729b)" d="M 41.168125 58.386799 
L 933.968125 58.386799 
" style="fill:none;stroke:#cccccc;stroke-linecap:round;"/>
     </g>
     <g id="text_17">
      <!-- 4000 -->
      <g style="fill:#262626;" transform="translate(7.2 62.323596)scale(0.11 -0.11)">
       <defs>
        <path d="M 1994 0 
L 1994 922 
L 119 922 
L 119 1691 
L 2106 4600 
L 2844 4600 
L 2844 1694 
L 3413 1694 
L 3413 922 
L 2844 922 
L 2844 0 
L 1994 0 
z
M 1994 1694 
L 1994 3259 
L 941 1694 
L 1994 1694 
z
" id="Arial-BoldMT-34" transform="scale(0.015625)"/>
       </defs>
       <use xlink:href="#Arial-BoldMT-34"/>
       <use x="55.615234" xlink:href="#Arial-BoldMT-30"/>
       <use x="111.230469" xlink:href="#Arial-BoldMT-30"/>
       <use x="166.845703" xlink:href="#Arial-BoldMT-30"/>
      </g>
     </g>
    </g>
   </g>
   <g id="patch_3">
    <path clip-path="url(#p27abd2729b)" d="M 52.328125 496.44 
L 141.608125 496.44 
L 141.608125 474.688503 
L 52.328125 474.688503 
z
" style="fill:#5875a4;stroke:#ffffff;stroke-linejoin:miter;"/>
   </g>
   <g id="patch_4">
    <path clip-path="url(#p27abd2729b)" d="M 163.928125 496.44 
L 253.208125 496.44 
L 253.208125 488.315999 
L 163.928125 488.315999 
z
" style="fill:#cc8963;stroke:#ffffff;stroke-linejoin:miter;"/>
   </g>
   <g id="patch_5">
    <path clip-path="url(#p27abd2729b)" d="M 275.528125 496.44 
L 364.808125 496.44 
L 364.808125 484.714686 
L 275.528125 484.714686 
z
" style="fill:#5f9e6e;stroke:#ffffff;stroke-linejoin:miter;"/>
   </g>
   <g id="patch_6">
    <path clip-path="url(#p27abd2729b)" d="M 387.128125 496.44 
L 476.408125 496.44 
L 476.408125 465.959328 
L 387.128125 465.959328 
z
" style="fill:#b55d60;stroke:#ffffff;stroke-linejoin:miter;"/>
   </g>
   <g id="patch_7">
    <path clip-path="url(#p27abd2729b)" d="M 498.728125 496.44 
L 588.008125 496.44 
L 588.008125 496.400299 
L 498.728125 496.400299 
z
" style="fill:#857aab;stroke:#ffffff;stroke-linejoin:miter;"/>
   </g>
   <g id="patch_8">
    <path clip-path="url(#p27abd2729b)" d="M 610.328125 496.44 
L 699.608125 496.44 
L 699.608125 30.497143 
L 610.328125 30.497143 
z
" style="fill:#8d7866;stroke:#ffffff;stroke-linejoin:miter;"/>
   </g>
   <g id="patch_9">
    <path clip-path="url(#p27abd2729b)" d="M 721.928125 496.44 
L 811.208125 496.44 
L 811.208125 488.315999 
L 721.928125 488.315999 
z
" style="fill:#d095bf;stroke:#ffffff;stroke-linejoin:miter;"/>
   </g>
   <g id="patch_10">
    <path clip-path="url(#p27abd2729b)" d="M 833.528125 496.44 
L 922.808125 496.44 
L 922.808125 387.141506 
L 833.528125 387.141506 
z
" style="fill:#8c8c8c;stroke:#ffffff;stroke-linejoin:miter;"/>
   </g>
   <g id="line2d_10">
    <path clip-path="url(#p27abd2729b)" style="fill:none;stroke:#424242;stroke-linecap:round;stroke-width:2.7;"/>
   </g>
   <g id="line2d_11">
    <path clip-path="url(#p27abd2729b)" style="fill:none;stroke:#424242;stroke-linecap:round;stroke-width:2.7;"/>
   </g>
   <g id="line2d_12">
    <path clip-path="url(#p27abd2729b)" style="fill:none;stroke:#424242;stroke-linecap:round;stroke-width:2.7;"/>
   </g>
   <g id="line2d_13">
    <path clip-path="url(#p27abd2729b)" style="fill:none;stroke:#424242;stroke-linecap:round;stroke-width:2.7;"/>
   </g>
   <g id="line2d_14">
    <path clip-path="url(#p27abd2729b)" style="fill:none;stroke:#424242;stroke-linecap:round;stroke-width:2.7;"/>
   </g>
   <g id="line2d_15">
    <path clip-path="url(#p27abd2729b)" style="fill:none;stroke:#424242;stroke-linecap:round;stroke-width:2.7;"/>
   </g>
   <g id="line2d_16">
    <path clip-path="url(#p27abd2729b)" style="fill:none;stroke:#424242;stroke-linecap:round;stroke-width:2.7;"/>
   </g>
   <g id="line2d_17">
    <path clip-path="url(#p27abd2729b)" style="fill:none;stroke:#424242;stroke-linecap:round;stroke-width:2.7;"/>
   </g>
   <g id="patch_11">
    <path d="M 41.168125 496.44 
L 41.168125 7.2 
" style="fill:none;stroke:#cccccc;stroke-linecap:square;stroke-linejoin:miter;stroke-width:1.25;"/>
   </g>
   <g id="patch_12">
    <path d="M 933.968125 496.44 
L 933.968125 7.2 
" style="fill:none;stroke:#cccccc;stroke-linecap:square;stroke-linejoin:miter;stroke-width:1.25;"/>
   </g>
   <g id="patch_13">
    <path d="M 41.168125 496.44 
L 933.968125 496.44 
" style="fill:none;stroke:#cccccc;stroke-linecap:square;stroke-linejoin:miter;stroke-width:1.25;"/>
   </g>
   <g id="patch_14">
    <path d="M 41.168125 7.2 
L 933.968125 7.2 
" style="fill:none;stroke:#cccccc;stroke-linecap:square;stroke-linejoin:miter;stroke-width:1.25;"/>
   </g>
  </g>
 </g>
 <defs>
  <clipPath id="p27abd2729b">
   <rect height="489.24" width="892.8" x="41.168125" y="7.2"/>
  </clipPath>
 </defs>
</svg>
